<?xml version="1.0" encoding="utf-8" standalone="no"?>
<!DOCTYPE svg PUBLIC "-//W3C//DTD SVG 1.1//EN"
  "http://www.w3.org/Graphics/SVG/1.1/DTD/svg11.dtd">
<svg xmlns:xlink="http://www.w3.org/1999/xlink" width="416.503125pt" height="316.675125pt" viewBox="0 0 416.503125 316.675125" xmlns="http://www.w3.org/2000/svg" version="1.1">
 <metadata>
  <rdf:RDF xmlns:dc="http://purl.org/dc/elements/1.1/" xmlns:cc="http://creativecommons.org/ns#" xmlns:rdf="http://www.w3.org/1999/02/22-rdf-syntax-ns#">
   <cc:Work>
    <dc:type rdf:resource="http://purl.org/dc/dcmitype/StillImage"/>
    <dc:date>2025-03-10T12:31:45.587650</dc:date>
    <dc:format>image/svg+xml</dc:format>
    <dc:creator>
     <cc:Agent>
      <dc:title>Matplotlib v3.10.0, https://matplotlib.org/</dc:title>
     </cc:Agent>
    </dc:creator>
   </cc:Work>
  </rdf:RDF>
 </metadata>
 <defs>
  <style type="text/css">*{stroke-linejoin: round; stroke-linecap: butt}</style>
 </defs>
 <g id="figure_1">
  <g id="patch_1">
   <path d="M 0 316.675125 
L 416.503125 316.675125 
L 416.503125 0 
L 0 0 
z
" style="fill: #ffffff"/>
  </g>
  <g id="axes_1">
   <g id="patch_2">
    <path d="M 52.183125 273.312 
L 409.303125 273.312 
L 409.303125 7.2 
L 52.183125 7.2 
z
" style="fill: #ffffff"/>
   </g>
   <g id="matplotlib.axis_1">
    <g id="xtick_1">
     <g id="line2d_1">
      <defs>
       <path id="me61da9948a" d="M 0 0 
L 0 3.5 
" style="stroke: #000000; stroke-width: 0.8"/>
      </defs>
      <g>
       <use xlink:href="#me61da9948a" x="80.902566" y="273.312" style="stroke: #000000; stroke-width: 0.8"/>
      </g>
     </g>
     <g id="text_1">
      <!-- 0.5 -->
      <g transform="translate(72.951003 287.910437) scale(0.1 -0.1)">
       <defs>
        <path id="DejaVuSans-30" d="M 2034 4250 
Q 1547 4250 1301 3770 
Q 1056 3291 1056 2328 
Q 1056 1369 1301 889 
Q 1547 409 2034 409 
Q 2525 409 2770 889 
Q 3016 1369 3016 2328 
Q 3016 3291 2770 3770 
Q 2525 4250 2034 4250 
z
M 2034 4750 
Q 2819 4750 3233 4129 
Q 3647 3509 3647 2328 
Q 3647 1150 3233 529 
Q 2819 -91 2034 -91 
Q 1250 -91 836 529 
Q 422 1150 422 2328 
Q 422 3509 836 4129 
Q 1250 4750 2034 4750 
z
" transform="scale(0.015625)"/>
        <path id="DejaVuSans-2e" d="M 684 794 
L 1344 794 
L 1344 0 
L 684 0 
L 684 794 
z
" transform="scale(0.015625)"/>
        <path id="DejaVuSans-35" d="M 691 4666 
L 3169 4666 
L 3169 4134 
L 1269 4134 
L 1269 2991 
Q 1406 3038 1543 3061 
Q 1681 3084 1819 3084 
Q 2600 3084 3056 2656 
Q 3513 2228 3513 1497 
Q 3513 744 3044 326 
Q 2575 -91 1722 -91 
Q 1428 -91 1123 -41 
Q 819 9 494 109 
L 494 744 
Q 775 591 1075 516 
Q 1375 441 1709 441 
Q 2250 441 2565 725 
Q 2881 1009 2881 1497 
Q 2881 1984 2565 2268 
Q 2250 2553 1709 2553 
Q 1456 2553 1204 2497 
Q 953 2441 691 2322 
L 691 4666 
z
" transform="scale(0.015625)"/>
       </defs>
       <use xlink:href="#DejaVuSans-30"/>
       <use xlink:href="#DejaVuSans-2e" transform="translate(63.623047 0)"/>
       <use xlink:href="#DejaVuSans-35" transform="translate(95.410156 0)"/>
      </g>
     </g>
    </g>
    <g id="xtick_2">
     <g id="line2d_2">
      <g>
       <use xlink:href="#me61da9948a" x="143.336132" y="273.312" style="stroke: #000000; stroke-width: 0.8"/>
      </g>
     </g>
     <g id="text_2">
      <!-- 1.0 -->
      <g transform="translate(135.384569 287.910437) scale(0.1 -0.1)">
       <defs>
        <path id="DejaVuSans-31" d="M 794 531 
L 1825 531 
L 1825 4091 
L 703 3866 
L 703 4441 
L 1819 4666 
L 2450 4666 
L 2450 531 
L 3481 531 
L 3481 0 
L 794 0 
L 794 531 
z
" transform="scale(0.015625)"/>
       </defs>
       <use xlink:href="#DejaVuSans-31"/>
       <use xlink:href="#DejaVuSans-2e" transform="translate(63.623047 0)"/>
       <use xlink:href="#DejaVuSans-30" transform="translate(95.410156 0)"/>
      </g>
     </g>
    </g>
    <g id="xtick_3">
     <g id="line2d_3">
      <g>
       <use xlink:href="#me61da9948a" x="205.769698" y="273.312" style="stroke: #000000; stroke-width: 0.8"/>
      </g>
     </g>
     <g id="text_3">
      <!-- 1.5 -->
      <g transform="translate(197.818136 287.910437) scale(0.1 -0.1)">
       <use xlink:href="#DejaVuSans-31"/>
       <use xlink:href="#DejaVuSans-2e" transform="translate(63.623047 0)"/>
       <use xlink:href="#DejaVuSans-35" transform="translate(95.410156 0)"/>
      </g>
     </g>
    </g>
    <g id="xtick_4">
     <g id="line2d_4">
      <g>
       <use xlink:href="#me61da9948a" x="268.203265" y="273.312" style="stroke: #000000; stroke-width: 0.8"/>
      </g>
     </g>
     <g id="text_4">
      <!-- 2.0 -->
      <g transform="translate(260.251702 287.910437) scale(0.1 -0.1)">
       <defs>
        <path id="DejaVuSans-32" d="M 1228 531 
L 3431 531 
L 3431 0 
L 469 0 
L 469 531 
Q 828 903 1448 1529 
Q 2069 2156 2228 2338 
Q 2531 2678 2651 2914 
Q 2772 3150 2772 3378 
Q 2772 3750 2511 3984 
Q 2250 4219 1831 4219 
Q 1534 4219 1204 4116 
Q 875 4013 500 3803 
L 500 4441 
Q 881 4594 1212 4672 
Q 1544 4750 1819 4750 
Q 2544 4750 2975 4387 
Q 3406 4025 3406 3419 
Q 3406 3131 3298 2873 
Q 3191 2616 2906 2266 
Q 2828 2175 2409 1742 
Q 1991 1309 1228 531 
z
" transform="scale(0.015625)"/>
       </defs>
       <use xlink:href="#DejaVuSans-32"/>
       <use xlink:href="#DejaVuSans-2e" transform="translate(63.623047 0)"/>
       <use xlink:href="#DejaVuSans-30" transform="translate(95.410156 0)"/>
      </g>
     </g>
    </g>
    <g id="xtick_5">
     <g id="line2d_5">
      <g>
       <use xlink:href="#me61da9948a" x="330.636831" y="273.312" style="stroke: #000000; stroke-width: 0.8"/>
      </g>
     </g>
     <g id="text_5">
      <!-- 2.5 -->
      <g transform="translate(322.685269 287.910437) scale(0.1 -0.1)">
       <use xlink:href="#DejaVuSans-32"/>
       <use xlink:href="#DejaVuSans-2e" transform="translate(63.623047 0)"/>
       <use xlink:href="#DejaVuSans-35" transform="translate(95.410156 0)"/>
      </g>
     </g>
    </g>
    <g id="xtick_6">
     <g id="line2d_6">
      <g>
       <use xlink:href="#me61da9948a" x="393.070398" y="273.312" style="stroke: #000000; stroke-width: 0.8"/>
      </g>
     </g>
     <g id="text_6">
      <!-- 3.0 -->
      <g transform="translate(385.118835 287.910437) scale(0.1 -0.1)">
       <defs>
        <path id="DejaVuSans-33" d="M 2597 2516 
Q 3050 2419 3304 2112 
Q 3559 1806 3559 1356 
Q 3559 666 3084 287 
Q 2609 -91 1734 -91 
Q 1441 -91 1130 -33 
Q 819 25 488 141 
L 488 750 
Q 750 597 1062 519 
Q 1375 441 1716 441 
Q 2309 441 2620 675 
Q 2931 909 2931 1356 
Q 2931 1769 2642 2001 
Q 2353 2234 1838 2234 
L 1294 2234 
L 1294 2753 
L 1863 2753 
Q 2328 2753 2575 2939 
Q 2822 3125 2822 3475 
Q 2822 3834 2567 4026 
Q 2313 4219 1838 4219 
Q 1578 4219 1281 4162 
Q 984 4106 628 3988 
L 628 4550 
Q 988 4650 1302 4700 
Q 1616 4750 1894 4750 
Q 2613 4750 3031 4423 
Q 3450 4097 3450 3541 
Q 3450 3153 3228 2886 
Q 3006 2619 2597 2516 
z
" transform="scale(0.015625)"/>
       </defs>
       <use xlink:href="#DejaVuSans-33"/>
       <use xlink:href="#DejaVuSans-2e" transform="translate(63.623047 0)"/>
       <use xlink:href="#DejaVuSans-30" transform="translate(95.410156 0)"/>
      </g>
     </g>
    </g>
    <g id="text_7">
     <!-- d -->
     <g transform="translate(225.664375 306.147625) scale(0.16 -0.16)">
      <defs>
       <path id="DejaVuSans-64" d="M 2906 2969 
L 2906 4863 
L 3481 4863 
L 3481 0 
L 2906 0 
L 2906 525 
Q 2725 213 2448 61 
Q 2172 -91 1784 -91 
Q 1150 -91 751 415 
Q 353 922 353 1747 
Q 353 2572 751 3078 
Q 1150 3584 1784 3584 
Q 2172 3584 2448 3432 
Q 2725 3281 2906 2969 
z
M 947 1747 
Q 947 1113 1208 752 
Q 1469 391 1925 391 
Q 2381 391 2643 752 
Q 2906 1113 2906 1747 
Q 2906 2381 2643 2742 
Q 2381 3103 1925 3103 
Q 1469 3103 1208 2742 
Q 947 2381 947 1747 
z
" transform="scale(0.015625)"/>
      </defs>
      <use xlink:href="#DejaVuSans-64"/>
     </g>
    </g>
   </g>
   <g id="matplotlib.axis_2">
    <g id="ytick_1">
     <g id="line2d_7">
      <defs>
       <path id="m4690d9bbdf" d="M 0 0 
L -3.5 0 
" style="stroke: #000000; stroke-width: 0.8"/>
      </defs>
      <g>
       <use xlink:href="#m4690d9bbdf" x="52.183125" y="261.398494" style="stroke: #000000; stroke-width: 0.8"/>
      </g>
     </g>
     <g id="text_8">
      <!-- 0.0 -->
      <g transform="translate(29.28 265.197713) scale(0.1 -0.1)">
       <use xlink:href="#DejaVuSans-30"/>
       <use xlink:href="#DejaVuSans-2e" transform="translate(63.623047 0)"/>
       <use xlink:href="#DejaVuSans-30" transform="translate(95.410156 0)"/>
      </g>
     </g>
    </g>
    <g id="ytick_2">
     <g id="line2d_8">
      <g>
       <use xlink:href="#m4690d9bbdf" x="52.183125" y="212.977999" style="stroke: #000000; stroke-width: 0.8"/>
      </g>
     </g>
     <g id="text_9">
      <!-- 0.2 -->
      <g transform="translate(29.28 216.777217) scale(0.1 -0.1)">
       <use xlink:href="#DejaVuSans-30"/>
       <use xlink:href="#DejaVuSans-2e" transform="translate(63.623047 0)"/>
       <use xlink:href="#DejaVuSans-32" transform="translate(95.410156 0)"/>
      </g>
     </g>
    </g>
    <g id="ytick_3">
     <g id="line2d_9">
      <g>
       <use xlink:href="#m4690d9bbdf" x="52.183125" y="164.557503" style="stroke: #000000; stroke-width: 0.8"/>
      </g>
     </g>
     <g id="text_10">
      <!-- 0.4 -->
      <g transform="translate(29.28 168.356722) scale(0.1 -0.1)">
       <defs>
        <path id="DejaVuSans-34" d="M 2419 4116 
L 825 1625 
L 2419 1625 
L 2419 4116 
z
M 2253 4666 
L 3047 4666 
L 3047 1625 
L 3713 1625 
L 3713 1100 
L 3047 1100 
L 3047 0 
L 2419 0 
L 2419 1100 
L 313 1100 
L 313 1709 
L 2253 4666 
z
" transform="scale(0.015625)"/>
       </defs>
       <use xlink:href="#DejaVuSans-30"/>
       <use xlink:href="#DejaVuSans-2e" transform="translate(63.623047 0)"/>
       <use xlink:href="#DejaVuSans-34" transform="translate(95.410156 0)"/>
      </g>
     </g>
    </g>
    <g id="ytick_4">
     <g id="line2d_10">
      <g>
       <use xlink:href="#m4690d9bbdf" x="52.183125" y="116.137008" style="stroke: #000000; stroke-width: 0.8"/>
      </g>
     </g>
     <g id="text_11">
      <!-- 0.6 -->
      <g transform="translate(29.28 119.936227) scale(0.1 -0.1)">
       <defs>
        <path id="DejaVuSans-36" d="M 2113 2584 
Q 1688 2584 1439 2293 
Q 1191 2003 1191 1497 
Q 1191 994 1439 701 
Q 1688 409 2113 409 
Q 2538 409 2786 701 
Q 3034 994 3034 1497 
Q 3034 2003 2786 2293 
Q 2538 2584 2113 2584 
z
M 3366 4563 
L 3366 3988 
Q 3128 4100 2886 4159 
Q 2644 4219 2406 4219 
Q 1781 4219 1451 3797 
Q 1122 3375 1075 2522 
Q 1259 2794 1537 2939 
Q 1816 3084 2150 3084 
Q 2853 3084 3261 2657 
Q 3669 2231 3669 1497 
Q 3669 778 3244 343 
Q 2819 -91 2113 -91 
Q 1303 -91 875 529 
Q 447 1150 447 2328 
Q 447 3434 972 4092 
Q 1497 4750 2381 4750 
Q 2619 4750 2861 4703 
Q 3103 4656 3366 4563 
z
" transform="scale(0.015625)"/>
       </defs>
       <use xlink:href="#DejaVuSans-30"/>
       <use xlink:href="#DejaVuSans-2e" transform="translate(63.623047 0)"/>
       <use xlink:href="#DejaVuSans-36" transform="translate(95.410156 0)"/>
      </g>
     </g>
    </g>
    <g id="ytick_5">
     <g id="line2d_11">
      <g>
       <use xlink:href="#m4690d9bbdf" x="52.183125" y="67.716512" style="stroke: #000000; stroke-width: 0.8"/>
      </g>
     </g>
     <g id="text_12">
      <!-- 0.8 -->
      <g transform="translate(29.28 71.515731) scale(0.1 -0.1)">
       <defs>
        <path id="DejaVuSans-38" d="M 2034 2216 
Q 1584 2216 1326 1975 
Q 1069 1734 1069 1313 
Q 1069 891 1326 650 
Q 1584 409 2034 409 
Q 2484 409 2743 651 
Q 3003 894 3003 1313 
Q 3003 1734 2745 1975 
Q 2488 2216 2034 2216 
z
M 1403 2484 
Q 997 2584 770 2862 
Q 544 3141 544 3541 
Q 544 4100 942 4425 
Q 1341 4750 2034 4750 
Q 2731 4750 3128 4425 
Q 3525 4100 3525 3541 
Q 3525 3141 3298 2862 
Q 3072 2584 2669 2484 
Q 3125 2378 3379 2068 
Q 3634 1759 3634 1313 
Q 3634 634 3220 271 
Q 2806 -91 2034 -91 
Q 1263 -91 848 271 
Q 434 634 434 1313 
Q 434 1759 690 2068 
Q 947 2378 1403 2484 
z
M 1172 3481 
Q 1172 3119 1398 2916 
Q 1625 2713 2034 2713 
Q 2441 2713 2670 2916 
Q 2900 3119 2900 3481 
Q 2900 3844 2670 4047 
Q 2441 4250 2034 4250 
Q 1625 4250 1398 4047 
Q 1172 3844 1172 3481 
z
" transform="scale(0.015625)"/>
       </defs>
       <use xlink:href="#DejaVuSans-30"/>
       <use xlink:href="#DejaVuSans-2e" transform="translate(63.623047 0)"/>
       <use xlink:href="#DejaVuSans-38" transform="translate(95.410156 0)"/>
      </g>
     </g>
    </g>
    <g id="ytick_6">
     <g id="line2d_12">
      <g>
       <use xlink:href="#m4690d9bbdf" x="52.183125" y="19.296017" style="stroke: #000000; stroke-width: 0.8"/>
      </g>
     </g>
     <g id="text_13">
      <!-- 1.0 -->
      <g transform="translate(29.28 23.095236) scale(0.1 -0.1)">
       <use xlink:href="#DejaVuSans-31"/>
       <use xlink:href="#DejaVuSans-2e" transform="translate(63.623047 0)"/>
       <use xlink:href="#DejaVuSans-30" transform="translate(95.410156 0)"/>
      </g>
     </g>
    </g>
    <g id="text_14">
     <!-- $\rho^{(1)}$ eig -->
     <g transform="translate(21.92 168.656) rotate(-90) scale(0.16 -0.16)">
      <defs>
       <path id="DejaVuSans-Oblique-3c1" d="M 1203 2875 
Q 1453 3194 1981 3475 
Q 2188 3584 2756 3584 
Q 3394 3584 3694 3078 
Q 3994 2572 3834 1747 
Q 3672 922 3175 415 
Q 2678 -91 2041 -91 
Q 1656 -91 1409 63 
Q 1163 213 1044 525 
L 681 -1331 
L 103 -1331 
L 697 1716 
Q 838 2438 1203 2875 
z
M 3238 1747 
Q 3359 2381 3169 2744 
Q 2978 3103 2522 3103 
Q 2066 3103 1734 2744 
Q 1403 2381 1281 1747 
Q 1156 1113 1347 750 
Q 1538 391 1994 391 
Q 2450 391 2781 750 
Q 3113 1113 3238 1747 
z
" transform="scale(0.015625)"/>
       <path id="DejaVuSans-28" d="M 1984 4856 
Q 1566 4138 1362 3434 
Q 1159 2731 1159 2009 
Q 1159 1288 1364 580 
Q 1569 -128 1984 -844 
L 1484 -844 
Q 1016 -109 783 600 
Q 550 1309 550 2009 
Q 550 2706 781 3412 
Q 1013 4119 1484 4856 
L 1984 4856 
z
" transform="scale(0.015625)"/>
       <path id="DejaVuSans-29" d="M 513 4856 
L 1013 4856 
Q 1481 4119 1714 3412 
Q 1947 2706 1947 2009 
Q 1947 1309 1714 600 
Q 1481 -109 1013 -844 
L 513 -844 
Q 928 -128 1133 580 
Q 1338 1288 1338 2009 
Q 1338 2731 1133 3434 
Q 928 4138 513 4856 
z
" transform="scale(0.015625)"/>
       <path id="DejaVuSans-20" transform="scale(0.015625)"/>
       <path id="DejaVuSans-65" d="M 3597 1894 
L 3597 1613 
L 953 1613 
Q 991 1019 1311 708 
Q 1631 397 2203 397 
Q 2534 397 2845 478 
Q 3156 559 3463 722 
L 3463 178 
Q 3153 47 2828 -22 
Q 2503 -91 2169 -91 
Q 1331 -91 842 396 
Q 353 884 353 1716 
Q 353 2575 817 3079 
Q 1281 3584 2069 3584 
Q 2775 3584 3186 3129 
Q 3597 2675 3597 1894 
z
M 3022 2063 
Q 3016 2534 2758 2815 
Q 2500 3097 2075 3097 
Q 1594 3097 1305 2825 
Q 1016 2553 972 2059 
L 3022 2063 
z
" transform="scale(0.015625)"/>
       <path id="DejaVuSans-69" d="M 603 3500 
L 1178 3500 
L 1178 0 
L 603 0 
L 603 3500 
z
M 603 4863 
L 1178 4863 
L 1178 4134 
L 603 4134 
L 603 4863 
z
" transform="scale(0.015625)"/>
       <path id="DejaVuSans-67" d="M 2906 1791 
Q 2906 2416 2648 2759 
Q 2391 3103 1925 3103 
Q 1463 3103 1205 2759 
Q 947 2416 947 1791 
Q 947 1169 1205 825 
Q 1463 481 1925 481 
Q 2391 481 2648 825 
Q 2906 1169 2906 1791 
z
M 3481 434 
Q 3481 -459 3084 -895 
Q 2688 -1331 1869 -1331 
Q 1566 -1331 1297 -1286 
Q 1028 -1241 775 -1147 
L 775 -588 
Q 1028 -725 1275 -790 
Q 1522 -856 1778 -856 
Q 2344 -856 2625 -561 
Q 2906 -266 2906 331 
L 2906 616 
Q 2728 306 2450 153 
Q 2172 0 1784 0 
Q 1141 0 747 490 
Q 353 981 353 1791 
Q 353 2603 747 3093 
Q 1141 3584 1784 3584 
Q 2172 3584 2450 3431 
Q 2728 3278 2906 2969 
L 2906 3500 
L 3481 3500 
L 3481 434 
z
" transform="scale(0.015625)"/>
      </defs>
      <use xlink:href="#DejaVuSans-Oblique-3c1" transform="translate(0 0.60625)"/>
      <use xlink:href="#DejaVuSans-28" transform="translate(68.126458 38.8875) scale(0.7)"/>
      <use xlink:href="#DejaVuSans-31" transform="translate(95.436029 38.8875) scale(0.7)"/>
      <use xlink:href="#DejaVuSans-29" transform="translate(139.972161 38.8875) scale(0.7)"/>
      <use xlink:href="#DejaVuSans-20" transform="translate(170.016107 0.60625)"/>
      <use xlink:href="#DejaVuSans-65" transform="translate(201.803216 0.60625)"/>
      <use xlink:href="#DejaVuSans-69" transform="translate(263.326654 0.60625)"/>
      <use xlink:href="#DejaVuSans-67" transform="translate(291.109857 0.60625)"/>
     </g>
    </g>
   </g>
   <g id="line2d_13">
    <path d="M 68.415852 261.216 
L 90.891936 260.854804 
L 105.875992 260.427241 
L 118.362705 259.854518 
L 128.352076 259.170897 
L 135.844104 258.473021 
L 145.833475 257.299502 
L 153.325503 256.206717 
L 160.817531 254.856409 
L 168.309559 253.205174 
L 173.304244 251.914727 
L 178.298929 250.45643 
L 183.293615 248.816338 
L 188.2883 246.980737 
L 193.282985 244.936609 
L 198.27767 242.672278 
L 203.272356 240.178248 
L 208.267041 237.448207 
L 213.261726 234.480141 
L 218.256412 231.277457 
L 223.251097 227.849976 
L 228.245782 224.214706 
L 235.73781 218.427926 
L 243.229838 212.343889 
L 265.705922 193.807335 
L 273.19795 188.042143 
L 278.192635 184.418369 
L 283.187321 180.994737 
L 288.182006 177.782939 
L 293.176691 174.787401 
L 298.171377 172.006498 
L 303.166062 169.434046 
L 308.160747 167.060623 
L 313.155433 164.874809 
L 318.150118 162.864136 
L 325.642146 160.148552 
L 333.134174 157.756325 
L 340.626202 155.648592 
L 348.11823 153.7906 
L 355.610258 152.151842 
L 363.102286 150.705775 
L 373.091656 149.038026 
L 383.081027 147.625846 
L 393.070398 146.430549 
L 393.070398 146.430549 
" clip-path="url(#p55322dff0f)" style="fill: none; stroke: #1f77b4; stroke-width: 1.5; stroke-linecap: square"/>
   </g>
   <g id="line2d_14">
    <path d="M 68.415852 261.216 
L 90.891936 260.854804 
L 105.875992 260.427241 
L 118.362705 259.854518 
L 128.352076 259.170897 
L 135.844104 258.473021 
L 145.833475 257.299502 
L 153.325503 256.206717 
L 160.817531 254.856409 
L 168.309559 253.205174 
L 173.304244 251.914727 
L 178.298929 250.45643 
L 183.293615 248.816338 
L 188.2883 246.980737 
L 193.282985 244.936609 
L 198.27767 242.672278 
L 203.272356 240.178248 
L 208.267041 237.448207 
L 213.261726 234.480141 
L 218.256412 231.277457 
L 223.251097 227.849976 
L 228.245782 224.214706 
L 235.73781 218.427925 
L 243.229838 212.343889 
L 265.705922 193.807333 
L 273.19795 188.042143 
L 278.192635 184.418364 
L 283.187321 180.994737 
L 288.182006 177.782939 
L 293.176691 174.787401 
L 298.171377 172.006496 
L 303.166062 169.434044 
L 308.160747 167.060623 
L 313.155433 164.874809 
L 318.150118 162.864136 
L 325.642146 160.148552 
L 333.134174 157.756325 
L 340.626202 155.648592 
L 348.11823 153.7906 
L 355.610258 152.151842 
L 363.102286 150.705775 
L 373.091656 149.038026 
L 383.081027 147.625846 
L 393.070398 146.430549 
L 393.070398 146.430549 
" clip-path="url(#p55322dff0f)" style="fill: none; stroke: #ff7f0e; stroke-width: 1.5; stroke-linecap: square"/>
   </g>
   <g id="line2d_15">
    <path d="M 68.415852 261.067895 
L 90.891936 260.717208 
L 105.875992 260.285967 
L 118.362705 259.720435 
L 128.352076 259.069484 
L 138.341447 258.17537 
L 143.336132 257.569027 
L 150.82816 256.410355 
L 158.320188 254.945194 
L 163.314873 253.772208 
L 168.309559 252.424544 
L 173.304244 250.887771 
L 178.298929 249.1484 
L 183.293615 247.194096 
L 188.2883 245.013916 
L 193.282985 242.598666 
L 198.27767 239.941396 
L 203.272356 237.03809 
L 208.267041 233.888561 
L 213.261726 230.497466 
L 218.256412 226.875361 
L 223.251097 223.039639 
L 230.743125 216.942187 
L 238.235153 210.538487 
L 258.213894 193.17658 
L 265.705922 187.050701 
L 270.700608 183.203238 
L 275.695293 179.579338 
L 280.689978 176.197232 
L 285.684663 173.065483 
L 290.679349 170.184168 
L 295.674034 167.546584 
L 300.668719 165.141043 
L 305.663405 162.952648 
L 310.65809 160.964771 
L 315.652775 159.160228 
L 323.144803 156.760379 
L 330.636831 154.681976 
L 338.128859 152.877982 
L 345.620887 151.308114 
L 353.112915 149.938445 
L 363.102286 148.375389 
L 373.091656 147.06389 
L 383.081027 145.960916 
L 393.070398 145.032036 
L 393.070398 145.032036 
" clip-path="url(#p55322dff0f)" style="fill: none; stroke: #2ca02c; stroke-width: 1.5; stroke-linecap: square"/>
   </g>
   <g id="line2d_16">
    <path d="M 68.415852 261.067895 
L 90.891936 260.717208 
L 105.875992 260.285967 
L 118.362705 259.720435 
L 128.352076 259.069484 
L 138.341447 258.17537 
L 143.336132 257.569027 
L 150.82816 256.410355 
L 158.320188 254.945194 
L 163.314873 253.772208 
L 168.309559 252.424544 
L 173.304244 250.887771 
L 178.298929 249.1484 
L 183.293615 247.194096 
L 188.2883 245.013916 
L 193.282985 242.598666 
L 198.27767 239.941396 
L 203.272356 237.03809 
L 208.267041 233.888561 
L 213.261726 230.497466 
L 218.256412 226.875361 
L 223.251097 223.039639 
L 230.743125 216.942187 
L 238.235153 210.538487 
L 258.213894 193.17658 
L 265.705922 187.050699 
L 270.700608 183.203238 
L 275.695293 179.579338 
L 280.689978 176.197232 
L 285.684663 173.065483 
L 290.679349 170.184168 
L 295.674034 167.546584 
L 300.668719 165.141043 
L 305.663405 162.952646 
L 310.65809 160.964771 
L 315.652775 159.160227 
L 323.144803 156.760379 
L 330.636831 154.681976 
L 338.128859 152.877982 
L 345.620887 151.308114 
L 353.112915 149.938445 
L 363.102286 148.375389 
L 373.091656 147.06389 
L 383.081027 145.960916 
L 393.070398 145.032036 
L 393.070398 145.032036 
" clip-path="url(#p55322dff0f)" style="fill: none; stroke: #d62728; stroke-width: 1.5; stroke-linecap: square"/>
   </g>
   <g id="line2d_17">
    <path d="M 68.415852 19.548459 
L 90.891936 19.896449 
L 105.875992 20.324564 
L 118.362705 20.892586 
L 128.352076 21.552085 
L 138.341447 22.462209 
L 145.833475 23.355062 
L 153.325503 24.468441 
L 160.817531 25.841577 
L 165.812216 27.03065 
L 170.806901 28.454884 
L 175.801587 30.080435 
L 180.796272 31.920946 
L 185.790957 33.98866 
L 190.785642 36.294028 
L 195.780328 38.845307 
L 200.775013 41.647863 
L 205.769698 44.703463 
L 210.764384 48.009138 
L 215.759069 51.556318 
L 220.753754 55.329852 
L 228.245782 61.363016 
L 235.73781 67.744156 
L 260.711237 89.509188 
L 268.203265 95.529475 
L 273.19795 99.281813 
L 278.192635 102.797215 
L 283.187321 106.062971 
L 288.182006 109.075439 
L 293.176691 111.838608 
L 298.171377 114.362248 
L 303.166062 116.66015 
L 308.160747 118.748454 
L 313.155433 120.64436 
L 318.150118 122.365124 
L 325.642146 124.653942 
L 333.134174 126.637341 
L 340.626202 128.360191 
L 348.11823 129.86067 
L 355.610258 131.170796 
L 365.599628 132.667029 
L 375.588999 133.923219 
L 385.57837 134.980095 
L 393.070398 135.661801 
L 393.070398 135.661801 
" clip-path="url(#p55322dff0f)" style="fill: none; stroke: #9467bd; stroke-width: 1.5; stroke-linecap: square"/>
   </g>
   <g id="line2d_18">
    <path d="M 68.415852 19.548459 
L 90.891936 19.896449 
L 105.875992 20.324564 
L 118.362705 20.892586 
L 128.352076 21.552085 
L 138.341447 22.462209 
L 145.833475 23.355062 
L 153.325503 24.468441 
L 160.817531 25.841577 
L 165.812216 27.03065 
L 170.806901 28.454884 
L 175.801587 30.080435 
L 180.796272 31.920946 
L 185.790957 33.98866 
L 190.785642 36.294028 
L 195.780328 38.845307 
L 200.775013 41.647863 
L 205.769698 44.703463 
L 210.764384 48.009138 
L 215.759069 51.556318 
L 220.753754 55.329852 
L 228.245782 61.363016 
L 235.73781 67.744156 
L 260.711237 89.509188 
L 268.203265 95.529474 
L 273.19795 99.281813 
L 278.192635 102.797212 
L 283.187321 106.062971 
L 288.182006 109.075439 
L 293.176691 111.838608 
L 298.171377 114.362248 
L 303.166062 116.660149 
L 308.160747 118.748453 
L 313.155433 120.64436 
L 318.150118 122.365124 
L 325.642146 124.653942 
L 333.134174 126.637341 
L 340.626202 128.36019 
L 348.11823 129.86067 
L 355.610258 131.170796 
L 365.599628 132.667029 
L 375.588999 133.923219 
L 385.57837 134.980095 
L 393.070398 135.661801 
L 393.070398 135.661801 
" clip-path="url(#p55322dff0f)" style="fill: none; stroke: #8c564b; stroke-width: 1.5; stroke-linecap: square"/>
   </g>
   <g id="line2d_19">
    <path d="M 68.415852 19.398789 
L 85.897251 19.601111 
L 103.378649 19.98224 
L 115.865363 20.445051 
L 125.854733 21.012424 
L 133.346761 21.605201 
L 140.838789 22.388339 
L 148.330817 23.41085 
L 155.822845 24.726153 
L 163.314873 26.36412 
L 170.806901 28.148301 
L 175.801587 29.534388 
L 180.796272 31.093114 
L 185.790957 32.837672 
L 190.785642 34.780909 
L 195.780328 36.934908 
L 200.775013 39.310218 
L 205.769698 41.915064 
L 210.764384 44.754109 
L 215.759069 47.827464 
L 220.753754 51.129528 
L 225.74844 54.647917 
L 233.240468 60.285793 
L 240.732496 66.265803 
L 253.219209 76.621961 
L 263.20858 84.835467 
L 270.700608 90.716879 
L 278.192635 96.227022 
L 283.187321 99.655084 
L 288.182006 102.871587 
L 293.176691 105.871828 
L 298.171377 108.657221 
L 303.166062 111.233827 
L 308.160747 113.611003 
L 313.155433 115.800152 
L 318.150118 117.813763 
L 325.642146 120.532989 
L 333.134174 122.928129 
L 340.626202 125.03813 
L 348.11823 126.897886 
L 355.610258 128.53802 
L 363.102286 129.985175 
L 373.091656 131.653964 
L 383.081027 133.066919 
L 393.070398 134.262727 
L 393.070398 134.262727 
" clip-path="url(#p55322dff0f)" style="fill: none; stroke: #e377c2; stroke-width: 1.5; stroke-linecap: square"/>
   </g>
   <g id="line2d_20">
    <path d="M 68.415852 19.398789 
L 85.897251 19.601111 
L 103.378649 19.98224 
L 115.865363 20.445051 
L 125.854733 21.012424 
L 133.346761 21.605201 
L 140.838789 22.388339 
L 148.330817 23.41085 
L 155.822845 24.726153 
L 163.314873 26.36412 
L 170.806901 28.148301 
L 175.801587 29.534388 
L 180.796272 31.093114 
L 185.790957 32.837672 
L 190.785642 34.780909 
L 195.780328 36.934908 
L 200.775013 39.310218 
L 205.769698 41.915064 
L 210.764384 44.754109 
L 215.759069 47.827464 
L 220.753754 51.129528 
L 225.74844 54.647917 
L 233.240468 60.285793 
L 240.732496 66.265803 
L 253.219209 76.621961 
L 263.20858 84.835467 
L 270.700608 90.716879 
L 278.192635 96.227019 
L 283.187321 99.655084 
L 288.182006 102.871587 
L 293.176691 105.871828 
L 298.171377 108.65722 
L 303.166062 111.233826 
L 308.160747 113.611003 
L 313.155433 115.800152 
L 318.150118 117.813763 
L 325.642146 120.532989 
L 333.134174 122.928129 
L 340.626202 125.038129 
L 348.11823 126.897886 
L 355.610258 128.53802 
L 363.102286 129.985175 
L 373.091656 131.653964 
L 383.081027 133.066919 
L 393.070398 134.262727 
L 393.070398 134.262727 
" clip-path="url(#p55322dff0f)" style="fill: none; stroke: #7f7f7f; stroke-width: 1.5; stroke-linecap: square"/>
   </g>
   <g id="line2d_21">
    <path d="M 68.415852 19.383856 
L 190.785642 19.582325 
L 393.070398 19.297255 
L 393.070398 19.297255 
" clip-path="url(#p55322dff0f)" style="fill: none; stroke: #bcbd22; stroke-width: 1.5; stroke-linecap: square"/>
   </g>
   <g id="line2d_22">
    <path d="M 68.415852 19.383856 
L 190.785642 19.582325 
L 393.070398 19.297255 
L 393.070398 19.297255 
" clip-path="url(#p55322dff0f)" style="fill: none; stroke: #17becf; stroke-width: 1.5; stroke-linecap: square"/>
   </g>
   <g id="line2d_23">
    <path d="M 68.415852 19.365698 
L 170.806901 19.520894 
L 245.727181 19.381397 
L 335.631517 19.30085 
L 393.070398 19.296649 
L 393.070398 19.296649 
" clip-path="url(#p55322dff0f)" style="fill: none; stroke: #1f77b4; stroke-width: 1.5; stroke-linecap: square"/>
   </g>
   <g id="line2d_24">
    <path d="M 68.415852 19.365698 
L 170.806901 19.520894 
L 245.727181 19.381397 
L 335.631517 19.30085 
L 393.070398 19.296649 
L 393.070398 19.296649 
" clip-path="url(#p55322dff0f)" style="fill: none; stroke: #ff7f0e; stroke-width: 1.5; stroke-linecap: square"/>
   </g>
   <g id="line2d_25">
    <path d="M 68.415852 19.296358 
L 393.070398 19.296007 
L 393.070398 19.296007 
" clip-path="url(#p55322dff0f)" style="fill: none; stroke: #2ca02c; stroke-width: 1.5; stroke-linecap: square"/>
   </g>
   <g id="line2d_26">
    <path d="M 68.415852 19.296358 
L 393.070398 19.296007 
L 393.070398 19.296007 
" clip-path="url(#p55322dff0f)" style="fill: none; stroke: #d62728; stroke-width: 1.5; stroke-linecap: square"/>
   </g>
   <g id="patch_3">
    <path d="M 52.183125 273.312 
L 52.183125 7.2 
" style="fill: none; stroke: #000000; stroke-width: 0.8; stroke-linejoin: miter; stroke-linecap: square"/>
   </g>
   <g id="patch_4">
    <path d="M 409.303125 273.312 
L 409.303125 7.2 
" style="fill: none; stroke: #000000; stroke-width: 0.8; stroke-linejoin: miter; stroke-linecap: square"/>
   </g>
   <g id="patch_5">
    <path d="M 52.183125 273.312 
L 409.303125 273.312 
" style="fill: none; stroke: #000000; stroke-width: 0.8; stroke-linejoin: miter; stroke-linecap: square"/>
   </g>
   <g id="patch_6">
    <path d="M 52.183125 7.2 
L 409.303125 7.2 
" style="fill: none; stroke: #000000; stroke-width: 0.8; stroke-linejoin: miter; stroke-linecap: square"/>
   </g>
  </g>
 </g>
 <defs>
  <clipPath id="p55322dff0f">
   <rect x="52.183125" y="7.2" width="357.12" height="266.112"/>
  </clipPath>
 </defs>
</svg>
