<?xml version="1.0" encoding="utf-8" standalone="no"?>
<!DOCTYPE svg PUBLIC "-//W3C//DTD SVG 1.1//EN"
  "http://www.w3.org/Graphics/SVG/1.1/DTD/svg11.dtd">
<svg xmlns:xlink="http://www.w3.org/1999/xlink" width="421.303125pt" height="316.675125pt" viewBox="0 0 421.303125 316.675125" xmlns="http://www.w3.org/2000/svg" version="1.1">
 <metadata>
  <rdf:RDF xmlns:dc="http://purl.org/dc/elements/1.1/" xmlns:cc="http://creativecommons.org/ns#" xmlns:rdf="http://www.w3.org/1999/02/22-rdf-syntax-ns#">
   <cc:Work>
    <dc:type rdf:resource="http://purl.org/dc/dcmitype/StillImage"/>
    <dc:date>2025-03-10T12:36:42.801173</dc:date>
    <dc:format>image/svg+xml</dc:format>
    <dc:creator>
     <cc:Agent>
      <dc:title>Matplotlib v3.10.0, https://matplotlib.org/</dc:title>
     </cc:Agent>
    </dc:creator>
   </cc:Work>
  </rdf:RDF>
 </metadata>
 <defs>
  <style type="text/css">*{stroke-linejoin: round; stroke-linecap: butt}</style>
 </defs>
 <g id="figure_1">
  <g id="patch_1">
   <path d="M 0 316.675125 
L 421.303125 316.675125 
L 421.303125 0 
L 0 0 
z
" style="fill: #ffffff"/>
  </g>
  <g id="axes_1">
   <g id="patch_2">
    <path d="M 56.983125 273.312 
L 414.103125 273.312 
L 414.103125 7.2 
L 56.983125 7.2 
z
" style="fill: #ffffff"/>
   </g>
   <g id="matplotlib.axis_1">
    <g id="xtick_1">
     <g id="line2d_1">
      <defs>
       <path id="me860749088" d="M 0 0 
L 0 3.5 
" style="stroke: #000000; stroke-width: 0.8"/>
      </defs>
      <g>
       <use xlink:href="#me860749088" x="85.702566" y="273.312" style="stroke: #000000; stroke-width: 0.8"/>
      </g>
     </g>
     <g id="text_1">
      <!-- 0.5 -->
      <g transform="translate(77.751003 287.910437) scale(0.1 -0.1)">
       <defs>
        <path id="DejaVuSans-30" d="M 2034 4250 
Q 1547 4250 1301 3770 
Q 1056 3291 1056 2328 
Q 1056 1369 1301 889 
Q 1547 409 2034 409 
Q 2525 409 2770 889 
Q 3016 1369 3016 2328 
Q 3016 3291 2770 3770 
Q 2525 4250 2034 4250 
z
M 2034 4750 
Q 2819 4750 3233 4129 
Q 3647 3509 3647 2328 
Q 3647 1150 3233 529 
Q 2819 -91 2034 -91 
Q 1250 -91 836 529 
Q 422 1150 422 2328 
Q 422 3509 836 4129 
Q 1250 4750 2034 4750 
z
" transform="scale(0.015625)"/>
        <path id="DejaVuSans-2e" d="M 684 794 
L 1344 794 
L 1344 0 
L 684 0 
L 684 794 
z
" transform="scale(0.015625)"/>
        <path id="DejaVuSans-35" d="M 691 4666 
L 3169 4666 
L 3169 4134 
L 1269 4134 
L 1269 2991 
Q 1406 3038 1543 3061 
Q 1681 3084 1819 3084 
Q 2600 3084 3056 2656 
Q 3513 2228 3513 1497 
Q 3513 744 3044 326 
Q 2575 -91 1722 -91 
Q 1428 -91 1123 -41 
Q 819 9 494 109 
L 494 744 
Q 775 591 1075 516 
Q 1375 441 1709 441 
Q 2250 441 2565 725 
Q 2881 1009 2881 1497 
Q 2881 1984 2565 2268 
Q 2250 2553 1709 2553 
Q 1456 2553 1204 2497 
Q 953 2441 691 2322 
L 691 4666 
z
" transform="scale(0.015625)"/>
       </defs>
       <use xlink:href="#DejaVuSans-30"/>
       <use xlink:href="#DejaVuSans-2e" transform="translate(63.623047 0)"/>
       <use xlink:href="#DejaVuSans-35" transform="translate(95.410156 0)"/>
      </g>
     </g>
    </g>
    <g id="xtick_2">
     <g id="line2d_2">
      <g>
       <use xlink:href="#me860749088" x="148.136132" y="273.312" style="stroke: #000000; stroke-width: 0.8"/>
      </g>
     </g>
     <g id="text_2">
      <!-- 1.0 -->
      <g transform="translate(140.184569 287.910437) scale(0.1 -0.1)">
       <defs>
        <path id="DejaVuSans-31" d="M 794 531 
L 1825 531 
L 1825 4091 
L 703 3866 
L 703 4441 
L 1819 4666 
L 2450 4666 
L 2450 531 
L 3481 531 
L 3481 0 
L 794 0 
L 794 531 
z
" transform="scale(0.015625)"/>
       </defs>
       <use xlink:href="#DejaVuSans-31"/>
       <use xlink:href="#DejaVuSans-2e" transform="translate(63.623047 0)"/>
       <use xlink:href="#DejaVuSans-30" transform="translate(95.410156 0)"/>
      </g>
     </g>
    </g>
    <g id="xtick_3">
     <g id="line2d_3">
      <g>
       <use xlink:href="#me860749088" x="210.569698" y="273.312" style="stroke: #000000; stroke-width: 0.8"/>
      </g>
     </g>
     <g id="text_3">
      <!-- 1.5 -->
      <g transform="translate(202.618136 287.910437) scale(0.1 -0.1)">
       <use xlink:href="#DejaVuSans-31"/>
       <use xlink:href="#DejaVuSans-2e" transform="translate(63.623047 0)"/>
       <use xlink:href="#DejaVuSans-35" transform="translate(95.410156 0)"/>
      </g>
     </g>
    </g>
    <g id="xtick_4">
     <g id="line2d_4">
      <g>
       <use xlink:href="#me860749088" x="273.003265" y="273.312" style="stroke: #000000; stroke-width: 0.8"/>
      </g>
     </g>
     <g id="text_4">
      <!-- 2.0 -->
      <g transform="translate(265.051702 287.910437) scale(0.1 -0.1)">
       <defs>
        <path id="DejaVuSans-32" d="M 1228 531 
L 3431 531 
L 3431 0 
L 469 0 
L 469 531 
Q 828 903 1448 1529 
Q 2069 2156 2228 2338 
Q 2531 2678 2651 2914 
Q 2772 3150 2772 3378 
Q 2772 3750 2511 3984 
Q 2250 4219 1831 4219 
Q 1534 4219 1204 4116 
Q 875 4013 500 3803 
L 500 4441 
Q 881 4594 1212 4672 
Q 1544 4750 1819 4750 
Q 2544 4750 2975 4387 
Q 3406 4025 3406 3419 
Q 3406 3131 3298 2873 
Q 3191 2616 2906 2266 
Q 2828 2175 2409 1742 
Q 1991 1309 1228 531 
z
" transform="scale(0.015625)"/>
       </defs>
       <use xlink:href="#DejaVuSans-32"/>
       <use xlink:href="#DejaVuSans-2e" transform="translate(63.623047 0)"/>
       <use xlink:href="#DejaVuSans-30" transform="translate(95.410156 0)"/>
      </g>
     </g>
    </g>
    <g id="xtick_5">
     <g id="line2d_5">
      <g>
       <use xlink:href="#me860749088" x="335.436831" y="273.312" style="stroke: #000000; stroke-width: 0.8"/>
      </g>
     </g>
     <g id="text_5">
      <!-- 2.5 -->
      <g transform="translate(327.485269 287.910437) scale(0.1 -0.1)">
       <use xlink:href="#DejaVuSans-32"/>
       <use xlink:href="#DejaVuSans-2e" transform="translate(63.623047 0)"/>
       <use xlink:href="#DejaVuSans-35" transform="translate(95.410156 0)"/>
      </g>
     </g>
    </g>
    <g id="xtick_6">
     <g id="line2d_6">
      <g>
       <use xlink:href="#me860749088" x="397.870398" y="273.312" style="stroke: #000000; stroke-width: 0.8"/>
      </g>
     </g>
     <g id="text_6">
      <!-- 3.0 -->
      <g transform="translate(389.918835 287.910437) scale(0.1 -0.1)">
       <defs>
        <path id="DejaVuSans-33" d="M 2597 2516 
Q 3050 2419 3304 2112 
Q 3559 1806 3559 1356 
Q 3559 666 3084 287 
Q 2609 -91 1734 -91 
Q 1441 -91 1130 -33 
Q 819 25 488 141 
L 488 750 
Q 750 597 1062 519 
Q 1375 441 1716 441 
Q 2309 441 2620 675 
Q 2931 909 2931 1356 
Q 2931 1769 2642 2001 
Q 2353 2234 1838 2234 
L 1294 2234 
L 1294 2753 
L 1863 2753 
Q 2328 2753 2575 2939 
Q 2822 3125 2822 3475 
Q 2822 3834 2567 4026 
Q 2313 4219 1838 4219 
Q 1578 4219 1281 4162 
Q 984 4106 628 3988 
L 628 4550 
Q 988 4650 1302 4700 
Q 1616 4750 1894 4750 
Q 2613 4750 3031 4423 
Q 3450 4097 3450 3541 
Q 3450 3153 3228 2886 
Q 3006 2619 2597 2516 
z
" transform="scale(0.015625)"/>
       </defs>
       <use xlink:href="#DejaVuSans-33"/>
       <use xlink:href="#DejaVuSans-2e" transform="translate(63.623047 0)"/>
       <use xlink:href="#DejaVuSans-30" transform="translate(95.410156 0)"/>
      </g>
     </g>
    </g>
    <g id="text_7">
     <!-- d -->
     <g transform="translate(230.464375 306.147625) scale(0.16 -0.16)">
      <defs>
       <path id="DejaVuSans-64" d="M 2906 2969 
L 2906 4863 
L 3481 4863 
L 3481 0 
L 2906 0 
L 2906 525 
Q 2725 213 2448 61 
Q 2172 -91 1784 -91 
Q 1150 -91 751 415 
Q 353 922 353 1747 
Q 353 2572 751 3078 
Q 1150 3584 1784 3584 
Q 2172 3584 2448 3432 
Q 2725 3281 2906 2969 
z
M 947 1747 
Q 947 1113 1208 752 
Q 1469 391 1925 391 
Q 2381 391 2643 752 
Q 2906 1113 2906 1747 
Q 2906 2381 2643 2742 
Q 2381 3103 1925 3103 
Q 1469 3103 1208 2742 
Q 947 2381 947 1747 
z
" transform="scale(0.015625)"/>
      </defs>
      <use xlink:href="#DejaVuSans-64"/>
     </g>
    </g>
   </g>
   <g id="matplotlib.axis_2">
    <g id="ytick_1">
     <g id="line2d_7">
      <defs>
       <path id="ma7467afe71" d="M 0 0 
L -3.5 0 
" style="stroke: #000000; stroke-width: 0.8"/>
      </defs>
      <g>
       <use xlink:href="#ma7467afe71" x="56.983125" y="261.216211" style="stroke: #000000; stroke-width: 0.8"/>
      </g>
     </g>
     <g id="text_8">
      <!-- 0.0 -->
      <g transform="translate(34.08 265.01543) scale(0.1 -0.1)">
       <use xlink:href="#DejaVuSans-30"/>
       <use xlink:href="#DejaVuSans-2e" transform="translate(63.623047 0)"/>
       <use xlink:href="#DejaVuSans-30" transform="translate(95.410156 0)"/>
      </g>
     </g>
    </g>
    <g id="ytick_2">
     <g id="line2d_8">
      <g>
       <use xlink:href="#ma7467afe71" x="56.983125" y="213.838488" style="stroke: #000000; stroke-width: 0.8"/>
      </g>
     </g>
     <g id="text_9">
      <!-- 0.2 -->
      <g transform="translate(34.08 217.637707) scale(0.1 -0.1)">
       <use xlink:href="#DejaVuSans-30"/>
       <use xlink:href="#DejaVuSans-2e" transform="translate(63.623047 0)"/>
       <use xlink:href="#DejaVuSans-32" transform="translate(95.410156 0)"/>
      </g>
     </g>
    </g>
    <g id="ytick_3">
     <g id="line2d_9">
      <g>
       <use xlink:href="#ma7467afe71" x="56.983125" y="166.460766" style="stroke: #000000; stroke-width: 0.8"/>
      </g>
     </g>
     <g id="text_10">
      <!-- 0.4 -->
      <g transform="translate(34.08 170.259984) scale(0.1 -0.1)">
       <defs>
        <path id="DejaVuSans-34" d="M 2419 4116 
L 825 1625 
L 2419 1625 
L 2419 4116 
z
M 2253 4666 
L 3047 4666 
L 3047 1625 
L 3713 1625 
L 3713 1100 
L 3047 1100 
L 3047 0 
L 2419 0 
L 2419 1100 
L 313 1100 
L 313 1709 
L 2253 4666 
z
" transform="scale(0.015625)"/>
       </defs>
       <use xlink:href="#DejaVuSans-30"/>
       <use xlink:href="#DejaVuSans-2e" transform="translate(63.623047 0)"/>
       <use xlink:href="#DejaVuSans-34" transform="translate(95.410156 0)"/>
      </g>
     </g>
    </g>
    <g id="ytick_4">
     <g id="line2d_10">
      <g>
       <use xlink:href="#ma7467afe71" x="56.983125" y="119.083043" style="stroke: #000000; stroke-width: 0.8"/>
      </g>
     </g>
     <g id="text_11">
      <!-- 0.6 -->
      <g transform="translate(34.08 122.882262) scale(0.1 -0.1)">
       <defs>
        <path id="DejaVuSans-36" d="M 2113 2584 
Q 1688 2584 1439 2293 
Q 1191 2003 1191 1497 
Q 1191 994 1439 701 
Q 1688 409 2113 409 
Q 2538 409 2786 701 
Q 3034 994 3034 1497 
Q 3034 2003 2786 2293 
Q 2538 2584 2113 2584 
z
M 3366 4563 
L 3366 3988 
Q 3128 4100 2886 4159 
Q 2644 4219 2406 4219 
Q 1781 4219 1451 3797 
Q 1122 3375 1075 2522 
Q 1259 2794 1537 2939 
Q 1816 3084 2150 3084 
Q 2853 3084 3261 2657 
Q 3669 2231 3669 1497 
Q 3669 778 3244 343 
Q 2819 -91 2113 -91 
Q 1303 -91 875 529 
Q 447 1150 447 2328 
Q 447 3434 972 4092 
Q 1497 4750 2381 4750 
Q 2619 4750 2861 4703 
Q 3103 4656 3366 4563 
z
" transform="scale(0.015625)"/>
       </defs>
       <use xlink:href="#DejaVuSans-30"/>
       <use xlink:href="#DejaVuSans-2e" transform="translate(63.623047 0)"/>
       <use xlink:href="#DejaVuSans-36" transform="translate(95.410156 0)"/>
      </g>
     </g>
    </g>
    <g id="ytick_5">
     <g id="line2d_11">
      <g>
       <use xlink:href="#ma7467afe71" x="56.983125" y="71.70532" style="stroke: #000000; stroke-width: 0.8"/>
      </g>
     </g>
     <g id="text_12">
      <!-- 0.8 -->
      <g transform="translate(34.08 75.504539) scale(0.1 -0.1)">
       <defs>
        <path id="DejaVuSans-38" d="M 2034 2216 
Q 1584 2216 1326 1975 
Q 1069 1734 1069 1313 
Q 1069 891 1326 650 
Q 1584 409 2034 409 
Q 2484 409 2743 651 
Q 3003 894 3003 1313 
Q 3003 1734 2745 1975 
Q 2488 2216 2034 2216 
z
M 1403 2484 
Q 997 2584 770 2862 
Q 544 3141 544 3541 
Q 544 4100 942 4425 
Q 1341 4750 2034 4750 
Q 2731 4750 3128 4425 
Q 3525 4100 3525 3541 
Q 3525 3141 3298 2862 
Q 3072 2584 2669 2484 
Q 3125 2378 3379 2068 
Q 3634 1759 3634 1313 
Q 3634 634 3220 271 
Q 2806 -91 2034 -91 
Q 1263 -91 848 271 
Q 434 634 434 1313 
Q 434 1759 690 2068 
Q 947 2378 1403 2484 
z
M 1172 3481 
Q 1172 3119 1398 2916 
Q 1625 2713 2034 2713 
Q 2441 2713 2670 2916 
Q 2900 3119 2900 3481 
Q 2900 3844 2670 4047 
Q 2441 4250 2034 4250 
Q 1625 4250 1398 4047 
Q 1172 3844 1172 3481 
z
" transform="scale(0.015625)"/>
       </defs>
       <use xlink:href="#DejaVuSans-30"/>
       <use xlink:href="#DejaVuSans-2e" transform="translate(63.623047 0)"/>
       <use xlink:href="#DejaVuSans-38" transform="translate(95.410156 0)"/>
      </g>
     </g>
    </g>
    <g id="ytick_6">
     <g id="line2d_12">
      <g>
       <use xlink:href="#ma7467afe71" x="56.983125" y="24.327598" style="stroke: #000000; stroke-width: 0.8"/>
      </g>
     </g>
     <g id="text_13">
      <!-- 1.0 -->
      <g transform="translate(34.08 28.126817) scale(0.1 -0.1)">
       <use xlink:href="#DejaVuSans-31"/>
       <use xlink:href="#DejaVuSans-2e" transform="translate(63.623047 0)"/>
       <use xlink:href="#DejaVuSans-30" transform="translate(95.410156 0)"/>
      </g>
     </g>
    </g>
    <g id="text_14">
     <!-- $\rho^{(2)}_{updown}$ eig -->
     <g transform="translate(23.36 182.576) rotate(-90) scale(0.16 -0.16)">
      <defs>
       <path id="DejaVuSans-Oblique-3c1" d="M 1203 2875 
Q 1453 3194 1981 3475 
Q 2188 3584 2756 3584 
Q 3394 3584 3694 3078 
Q 3994 2572 3834 1747 
Q 3672 922 3175 415 
Q 2678 -91 2041 -91 
Q 1656 -91 1409 63 
Q 1163 213 1044 525 
L 681 -1331 
L 103 -1331 
L 697 1716 
Q 838 2438 1203 2875 
z
M 3238 1747 
Q 3359 2381 3169 2744 
Q 2978 3103 2522 3103 
Q 2066 3103 1734 2744 
Q 1403 2381 1281 1747 
Q 1156 1113 1347 750 
Q 1538 391 1994 391 
Q 2450 391 2781 750 
Q 3113 1113 3238 1747 
z
" transform="scale(0.015625)"/>
       <path id="DejaVuSans-28" d="M 1984 4856 
Q 1566 4138 1362 3434 
Q 1159 2731 1159 2009 
Q 1159 1288 1364 580 
Q 1569 -128 1984 -844 
L 1484 -844 
Q 1016 -109 783 600 
Q 550 1309 550 2009 
Q 550 2706 781 3412 
Q 1013 4119 1484 4856 
L 1984 4856 
z
" transform="scale(0.015625)"/>
       <path id="DejaVuSans-29" d="M 513 4856 
L 1013 4856 
Q 1481 4119 1714 3412 
Q 1947 2706 1947 2009 
Q 1947 1309 1714 600 
Q 1481 -109 1013 -844 
L 513 -844 
Q 928 -128 1133 580 
Q 1338 1288 1338 2009 
Q 1338 2731 1133 3434 
Q 928 4138 513 4856 
z
" transform="scale(0.015625)"/>
       <path id="DejaVuSans-Oblique-75" d="M 428 1388 
L 838 3500 
L 1416 3500 
L 1006 1409 
Q 975 1256 961 1147 
Q 947 1038 947 966 
Q 947 700 1109 554 
Q 1272 409 1569 409 
Q 2031 409 2368 721 
Q 2706 1034 2809 1563 
L 3194 3500 
L 3769 3500 
L 3091 0 
L 2516 0 
L 2631 550 
Q 2388 244 2052 76 
Q 1716 -91 1338 -91 
Q 878 -91 622 161 
Q 366 413 366 863 
Q 366 956 381 1097 
Q 397 1238 428 1388 
z
" transform="scale(0.015625)"/>
       <path id="DejaVuSans-Oblique-70" d="M 3175 2156 
Q 3175 2616 2975 2859 
Q 2775 3103 2400 3103 
Q 2144 3103 1911 2972 
Q 1678 2841 1497 2591 
Q 1319 2344 1212 1994 
Q 1106 1644 1106 1300 
Q 1106 863 1306 627 
Q 1506 391 1875 391 
Q 2147 391 2380 519 
Q 2613 647 2778 891 
Q 2956 1147 3065 1494 
Q 3175 1841 3175 2156 
z
M 1394 2969 
Q 1625 3272 1939 3428 
Q 2253 3584 2638 3584 
Q 3175 3584 3472 3232 
Q 3769 2881 3769 2247 
Q 3769 1728 3584 1258 
Q 3400 788 3053 416 
Q 2822 169 2531 39 
Q 2241 -91 1919 -91 
Q 1547 -91 1294 64 
Q 1041 219 916 525 
L 556 -1331 
L -19 -1331 
L 922 3500 
L 1497 3500 
L 1394 2969 
z
" transform="scale(0.015625)"/>
       <path id="DejaVuSans-Oblique-64" d="M 2675 525 
Q 2444 222 2128 65 
Q 1813 -91 1428 -91 
Q 903 -91 598 267 
Q 294 625 294 1247 
Q 294 1766 478 2236 
Q 663 2706 1013 3078 
Q 1244 3325 1534 3454 
Q 1825 3584 2144 3584 
Q 2481 3584 2739 3421 
Q 2997 3259 3138 2956 
L 3513 4863 
L 4091 4863 
L 3144 0 
L 2566 0 
L 2675 525 
z
M 891 1350 
Q 891 897 1095 644 
Q 1300 391 1663 391 
Q 1931 391 2161 520 
Q 2391 650 2566 903 
Q 2750 1166 2856 1509 
Q 2963 1853 2963 2188 
Q 2963 2622 2758 2865 
Q 2553 3109 2194 3109 
Q 1922 3109 1687 2981 
Q 1453 2853 1288 2613 
Q 1106 2353 998 2009 
Q 891 1666 891 1350 
z
" transform="scale(0.015625)"/>
       <path id="DejaVuSans-Oblique-6f" d="M 1625 -91 
Q 1009 -91 651 289 
Q 294 669 294 1325 
Q 294 1706 417 2101 
Q 541 2497 738 2766 
Q 1047 3184 1428 3384 
Q 1809 3584 2291 3584 
Q 2888 3584 3255 3212 
Q 3622 2841 3622 2241 
Q 3622 1825 3500 1412 
Q 3378 1000 3181 728 
Q 2875 309 2494 109 
Q 2113 -91 1625 -91 
z
M 891 1344 
Q 891 869 1089 633 
Q 1288 397 1691 397 
Q 2269 397 2648 901 
Q 3028 1406 3028 2181 
Q 3028 2634 2825 2865 
Q 2622 3097 2228 3097 
Q 1903 3097 1650 2945 
Q 1397 2794 1197 2484 
Q 1050 2253 970 1956 
Q 891 1659 891 1344 
z
" transform="scale(0.015625)"/>
       <path id="DejaVuSans-Oblique-77" d="M 544 3500 
L 1113 3500 
L 1259 684 
L 2566 3500 
L 3231 3500 
L 3425 684 
L 4666 3500 
L 5241 3500 
L 3641 0 
L 2969 0 
L 2797 2900 
L 1459 0 
L 781 0 
L 544 3500 
z
" transform="scale(0.015625)"/>
       <path id="DejaVuSans-Oblique-6e" d="M 3566 2113 
L 3156 0 
L 2578 0 
L 2988 2091 
Q 3016 2238 3031 2350 
Q 3047 2463 3047 2528 
Q 3047 2791 2881 2937 
Q 2716 3084 2419 3084 
Q 1956 3084 1622 2776 
Q 1288 2469 1184 1941 
L 800 0 
L 225 0 
L 903 3500 
L 1478 3500 
L 1363 2950 
Q 1603 3253 1940 3418 
Q 2278 3584 2650 3584 
Q 3113 3584 3367 3334 
Q 3622 3084 3622 2631 
Q 3622 2519 3608 2391 
Q 3594 2263 3566 2113 
z
" transform="scale(0.015625)"/>
       <path id="DejaVuSans-20" transform="scale(0.015625)"/>
       <path id="DejaVuSans-65" d="M 3597 1894 
L 3597 1613 
L 953 1613 
Q 991 1019 1311 708 
Q 1631 397 2203 397 
Q 2534 397 2845 478 
Q 3156 559 3463 722 
L 3463 178 
Q 3153 47 2828 -22 
Q 2503 -91 2169 -91 
Q 1331 -91 842 396 
Q 353 884 353 1716 
Q 353 2575 817 3079 
Q 1281 3584 2069 3584 
Q 2775 3584 3186 3129 
Q 3597 2675 3597 1894 
z
M 3022 2063 
Q 3016 2534 2758 2815 
Q 2500 3097 2075 3097 
Q 1594 3097 1305 2825 
Q 1016 2553 972 2059 
L 3022 2063 
z
" transform="scale(0.015625)"/>
       <path id="DejaVuSans-69" d="M 603 3500 
L 1178 3500 
L 1178 0 
L 603 0 
L 603 3500 
z
M 603 4863 
L 1178 4863 
L 1178 4134 
L 603 4134 
L 603 4863 
z
" transform="scale(0.015625)"/>
       <path id="DejaVuSans-67" d="M 2906 1791 
Q 2906 2416 2648 2759 
Q 2391 3103 1925 3103 
Q 1463 3103 1205 2759 
Q 947 2416 947 1791 
Q 947 1169 1205 825 
Q 1463 481 1925 481 
Q 2391 481 2648 825 
Q 2906 1169 2906 1791 
z
M 3481 434 
Q 3481 -459 3084 -895 
Q 2688 -1331 1869 -1331 
Q 1566 -1331 1297 -1286 
Q 1028 -1241 775 -1147 
L 775 -588 
Q 1028 -725 1275 -790 
Q 1522 -856 1778 -856 
Q 2344 -856 2625 -561 
Q 2906 -266 2906 331 
L 2906 616 
Q 2728 306 2450 153 
Q 2172 0 1784 0 
Q 1141 0 747 490 
Q 353 981 353 1791 
Q 353 2603 747 3093 
Q 1141 3584 1784 3584 
Q 2172 3584 2450 3431 
Q 2728 3278 2906 2969 
L 2906 3500 
L 3481 3500 
L 3481 434 
z
" transform="scale(0.015625)"/>
      </defs>
      <use xlink:href="#DejaVuSans-Oblique-3c1" transform="translate(0 0.310938)"/>
      <use xlink:href="#DejaVuSans-28" transform="translate(68.126458 47.8875) scale(0.7)"/>
      <use xlink:href="#DejaVuSans-32" transform="translate(95.436029 47.8875) scale(0.7)"/>
      <use xlink:href="#DejaVuSans-29" transform="translate(139.972161 47.8875) scale(0.7)"/>
      <use xlink:href="#DejaVuSans-Oblique-75" transform="translate(63.476562 -27.032812) scale(0.7)"/>
      <use xlink:href="#DejaVuSans-Oblique-70" transform="translate(107.841797 -27.032812) scale(0.7)"/>
      <use xlink:href="#DejaVuSans-Oblique-64" transform="translate(152.275391 -27.032812) scale(0.7)"/>
      <use xlink:href="#DejaVuSans-Oblique-6f" transform="translate(196.708984 -27.032812) scale(0.7)"/>
      <use xlink:href="#DejaVuSans-Oblique-77" transform="translate(239.536133 -27.032812) scale(0.7)"/>
      <use xlink:href="#DejaVuSans-Oblique-6e" transform="translate(296.787109 -27.032812) scale(0.7)"/>
      <use xlink:href="#DejaVuSans-20" transform="translate(343.886719 0.310938)"/>
      <use xlink:href="#DejaVuSans-65" transform="translate(375.673828 0.310938)"/>
      <use xlink:href="#DejaVuSans-69" transform="translate(437.197266 0.310938)"/>
      <use xlink:href="#DejaVuSans-67" transform="translate(464.980469 0.310938)"/>
     </g>
    </g>
   </g>
   <g id="line2d_13">
    <path d="M 73.215852 261.216 
L 397.870398 261.215331 
L 397.870398 261.215331 
" clip-path="url(#p2a562c8b7a)" style="fill: none; stroke: #1f77b4; stroke-width: 1.5; stroke-linecap: square"/>
   </g>
   <g id="line2d_14">
    <path d="M 73.215852 261.215971 
L 220.559069 261.101204 
L 285.489978 261.173649 
L 397.870398 261.215303 
L 397.870398 261.215303 
" clip-path="url(#p2a562c8b7a)" style="fill: none; stroke: #ff7f0e; stroke-width: 1.5; stroke-linecap: square"/>
   </g>
   <g id="line2d_15">
    <path d="M 73.215852 261.215789 
L 158.125503 261.106337 
L 205.575013 260.645819 
L 218.061726 260.452252 
L 280.495293 261.114732 
L 327.944803 261.202682 
L 397.870398 261.215243 
L 397.870398 261.215243 
" clip-path="url(#p2a562c8b7a)" style="fill: none; stroke: #2ca02c; stroke-width: 1.5; stroke-linecap: square"/>
   </g>
   <g id="line2d_16">
    <path d="M 73.215852 261.215731 
L 155.62816 261.112051 
L 178.104244 260.840865 
L 188.093615 260.702299 
L 205.575013 260.448654 
L 210.569698 260.375534 
L 215.564384 260.401051 
L 220.559069 260.296984 
L 265.511237 260.993001 
L 295.479349 261.157269 
L 360.410258 261.212227 
L 397.870398 261.215219 
L 397.870398 261.215219 
" clip-path="url(#p2a562c8b7a)" style="fill: none; stroke: #d62728; stroke-width: 1.5; stroke-linecap: square"/>
   </g>
   <g id="line2d_17">
    <path d="M 73.215852 261.136236 
L 173.109559 260.89188 
L 203.07767 260.332779 
L 210.569698 260.326882 
L 215.564384 260.213243 
L 220.559069 260.219184 
L 230.54844 259.690416 
L 238.040468 259.110637 
L 245.532496 258.341446 
L 253.024524 257.36723 
L 260.516552 256.193948 
L 263.013894 256.135507 
L 270.505922 256.667735 
L 280.495293 257.653087 
L 295.479349 259.138564 
L 305.468719 259.888866 
L 315.45809 260.410984 
L 327.944803 260.807782 
L 342.928859 261.045313 
L 367.902286 261.179521 
L 397.870398 261.210752 
L 397.870398 261.210752 
" clip-path="url(#p2a562c8b7a)" style="fill: none; stroke: #9467bd; stroke-width: 1.5; stroke-linecap: square"/>
   </g>
   <g id="line2d_18">
    <path d="M 73.215852 261.127117 
L 183.098929 260.609806 
L 200.580328 260.022664 
L 218.061726 260.079894 
L 228.051097 259.587456 
L 238.040468 258.841296 
L 245.532496 258.074287 
L 253.024524 257.111179 
L 268.00858 254.853706 
L 270.505922 254.378945 
L 273.003265 254.39146 
L 280.495293 256.042161 
L 287.987321 257.428992 
L 295.479349 258.527868 
L 302.971377 259.35727 
L 310.463405 259.95885 
L 320.452775 260.490417 
L 332.939489 260.863868 
L 350.420887 261.094247 
L 380.388999 261.197962 
L 397.870398 261.210281 
L 397.870398 261.210281 
" clip-path="url(#p2a562c8b7a)" style="fill: none; stroke: #8c564b; stroke-width: 1.5; stroke-linecap: square"/>
   </g>
   <g id="line2d_19">
    <path d="M 73.215852 261.118785 
L 130.654733 260.787662 
L 193.0883 260.150432 
L 195.585642 260.010032 
L 200.580328 259.879436 
L 210.569698 259.21181 
L 223.056412 258.087713 
L 240.53781 256.460499 
L 248.029838 256.028 
L 253.024524 255.908718 
L 260.516552 255.956992 
L 277.99795 252.905201 
L 295.479349 249.506239 
L 305.468719 247.798563 
L 315.45809 246.348354 
L 325.447461 245.165931 
L 335.436831 244.23102 
L 345.426202 243.508828 
L 357.912915 242.84686 
L 372.896971 242.315537 
L 390.37837 241.939854 
L 397.870398 241.833372 
L 397.870398 241.833372 
" clip-path="url(#p2a562c8b7a)" style="fill: none; stroke: #e377c2; stroke-width: 1.5; stroke-linecap: square"/>
   </g>
   <g id="line2d_20">
    <path d="M 73.215852 261.107942 
L 120.665363 260.676618 
L 188.093615 259.961417 
L 195.585642 259.986391 
L 203.07767 259.449905 
L 210.569698 258.696837 
L 218.061726 257.71919 
L 225.553754 256.496875 
L 233.045782 255.030499 
L 240.53781 253.349862 
L 253.024524 250.258577 
L 255.521866 250.07948 
L 270.505922 253.794937 
L 273.003265 253.701105 
L 297.976691 248.955771 
L 307.966062 247.336568 
L 317.955433 245.974872 
L 327.944803 244.872512 
L 337.934174 244.00546 
L 347.923545 243.338322 
L 360.410258 242.728878 
L 375.394314 242.241305 
L 392.875712 241.897644 
L 397.870398 241.830216 
L 397.870398 241.830216 
" clip-path="url(#p2a562c8b7a)" style="fill: none; stroke: #7f7f7f; stroke-width: 1.5; stroke-linecap: square"/>
   </g>
   <g id="line2d_21">
    <path d="M 73.215852 261.102197 
L 113.173335 260.696016 
L 128.157391 260.291791 
L 140.644104 259.724956 
L 150.633475 259.048137 
L 160.622845 258.10546 
L 168.114873 257.185257 
L 175.606901 256.055087 
L 183.098929 254.696795 
L 190.590957 253.102276 
L 198.082985 251.2782 
L 205.575013 249.251388 
L 215.564384 246.489343 
L 220.559069 246.168921 
L 225.553754 246.060259 
L 230.54844 246.181801 
L 235.543125 246.542043 
L 240.53781 247.136929 
L 245.532496 247.948288 
L 250.527181 248.94389 
L 253.024524 249.497324 
L 255.521866 249.629079 
L 265.511237 247.210274 
L 273.003265 245.604148 
L 280.495293 244.256408 
L 287.987321 243.196129 
L 295.479349 242.414281 
L 302.971377 241.874852 
L 312.960747 241.447659 
L 325.447461 241.222451 
L 342.928859 241.188582 
L 397.870398 241.397098 
L 397.870398 241.397098 
" clip-path="url(#p2a562c8b7a)" style="fill: none; stroke: #bcbd22; stroke-width: 1.5; stroke-linecap: square"/>
   </g>
   <g id="line2d_22">
    <path d="M 73.215852 261.102197 
L 95.691936 260.788922 
L 110.675992 260.394211 
L 130.654733 259.579534 
L 140.644104 258.914795 
L 148.136132 258.219538 
L 155.62816 257.290986 
L 160.622845 256.507497 
L 165.617531 255.565477 
L 170.612216 254.442349 
L 175.606901 253.257885 
L 198.082985 248.880992 
L 205.575013 247.659725 
L 215.564384 246.327809 
L 230.54844 241.909374 
L 238.040468 239.94398 
L 243.035153 238.8079 
L 248.029838 237.845848 
L 253.024524 237.077774 
L 258.019209 236.512691 
L 263.013894 236.148034 
L 268.00858 235.970454 
L 275.500608 236.00502 
L 282.992635 236.314485 
L 292.982006 236.982125 
L 322.950118 239.183091 
L 337.934174 239.969067 
L 352.91823 240.516883 
L 370.399628 240.926428 
L 392.875712 241.217069 
L 397.870398 241.258004 
L 397.870398 241.258004 
" clip-path="url(#p2a562c8b7a)" style="fill: none; stroke: #17becf; stroke-width: 1.5; stroke-linecap: square"/>
   </g>
   <g id="line2d_23">
    <path d="M 73.215852 261.094768 
L 90.697251 260.881434 
L 108.178649 260.475415 
L 120.665363 259.983087 
L 130.654733 259.386745 
L 140.644104 258.55392 
L 148.136132 257.776216 
L 155.62816 256.793048 
L 163.120188 255.565624 
L 173.109559 253.743229 
L 178.104244 252.397229 
L 185.596272 250.02861 
L 190.590957 248.285455 
L 195.585642 246.373283 
L 200.580328 244.254816 
L 205.575013 241.915261 
L 210.569698 239.347001 
L 215.564384 236.546039 
L 220.559069 233.513122 
L 225.553754 230.254786 
L 230.54844 226.784258 
L 238.040468 221.227439 
L 245.532496 215.341019 
L 263.013894 201.215141 
L 265.511237 199.736941 
L 270.505922 197.312758 
L 275.500608 195.152341 
L 280.495293 193.236246 
L 285.489978 191.556879 
L 290.484663 190.101268 
L 295.479349 188.851721 
L 300.474034 187.787664 
L 307.966062 186.491879 
L 315.45809 185.493484 
L 322.950118 184.729004 
L 332.939489 183.983466 
L 342.928859 183.463802 
L 355.415573 183.028808 
L 372.896971 182.668882 
L 397.870398 182.422082 
L 397.870398 182.422082 
" clip-path="url(#p2a562c8b7a)" style="fill: none; stroke: #1f77b4; stroke-width: 1.5; stroke-linecap: square"/>
   </g>
   <g id="line2d_24">
    <path d="M 73.215852 261.072948 
L 93.194594 260.794987 
L 113.173335 260.292307 
L 123.162705 259.854103 
L 133.152076 259.199907 
L 143.141447 258.286869 
L 150.633475 257.431141 
L 158.125503 256.375878 
L 165.617531 255.094332 
L 173.109559 253.475209 
L 178.104244 252.207265 
L 183.098929 250.773044 
L 188.093615 249.159226 
L 193.0883 247.348375 
L 198.082985 245.326495 
L 203.07767 243.093741 
L 208.072356 240.638451 
L 213.067041 237.953478 
L 218.061726 235.036415 
L 223.056412 231.890395 
L 228.051097 228.524937 
L 233.045782 224.956648 
L 240.53781 219.278424 
L 248.029838 213.31046 
L 270.505922 195.13576 
L 277.99795 189.485008 
L 282.992635 185.933562 
L 287.987321 182.578547 
L 292.982006 179.431364 
L 297.976691 176.496312 
L 302.971377 173.771758 
L 307.966062 171.252011 
L 310.463405 170.340547 
L 315.45809 172.141551 
L 320.452775 173.686251 
L 325.447461 175.00263 
L 330.442146 176.122134 
L 335.436831 177.072788 
L 342.928859 178.235065 
L 350.420887 179.141506 
L 357.912915 179.847469 
L 367.902286 180.550972 
L 380.388999 181.15421 
L 395.373055 181.608743 
L 397.870398 181.664191 
L 397.870398 181.664191 
" clip-path="url(#p2a562c8b7a)" style="fill: none; stroke: #ff7f0e; stroke-width: 1.5; stroke-linecap: square"/>
   </g>
   <g id="line2d_25">
    <path d="M 73.215852 261.047967 
L 95.691936 260.690003 
L 108.178649 260.394715 
L 123.162705 259.76744 
L 133.152076 259.162601 
L 140.644104 258.526115 
L 150.633475 257.401003 
L 158.125503 256.327241 
L 165.617531 254.990602 
L 170.612216 253.926232 
L 175.606901 252.691168 
L 185.596272 249.787746 
L 190.590957 248.09137 
L 195.585642 246.196705 
L 200.580328 244.091514 
L 205.575013 241.765279 
L 210.569698 239.210108 
L 215.564384 236.421776 
L 220.559069 233.400843 
L 225.553754 230.153701 
L 230.54844 226.69346 
L 238.040468 221.150149 
L 245.532496 215.274497 
L 260.516552 203.075563 
L 268.00858 197.073723 
L 275.500608 191.324083 
L 282.992635 185.931484 
L 287.987321 182.577122 
L 292.982006 179.430321 
L 297.976691 176.495541 
L 302.971377 173.771271 
L 307.966062 171.251608 
L 312.960747 168.926598 
L 317.955433 166.785509 
L 322.950118 164.816102 
L 330.442146 162.156451 
L 337.934174 159.813701 
L 345.426202 157.749729 
L 352.91823 155.930453 
L 360.410258 154.325958 
L 367.902286 152.910218 
L 377.891656 151.277562 
L 387.881027 149.895197 
L 397.870398 148.725213 
L 397.870398 148.725213 
" clip-path="url(#p2a562c8b7a)" style="fill: none; stroke: #2ca02c; stroke-width: 1.5; stroke-linecap: square"/>
   </g>
   <g id="line2d_26">
    <path d="M 73.215852 261.037688 
L 95.691936 260.689043 
L 113.173335 260.19556 
L 125.660048 259.625464 
L 135.649419 258.959901 
L 143.141447 258.258452 
L 150.633475 257.302104 
L 163.120188 255.328406 
L 170.612216 253.821163 
L 175.606901 252.638946 
L 180.601587 251.299049 
L 185.596272 249.787746 
L 190.590957 248.09137 
L 195.585642 246.196705 
L 200.580328 244.091514 
L 205.575013 241.765279 
L 210.569698 239.210108 
L 215.564384 236.421776 
L 220.559069 233.400843 
L 225.553754 230.153701 
L 230.54844 226.69346 
L 238.040468 221.150149 
L 245.532496 215.274497 
L 260.516552 203.075563 
L 270.505922 195.109783 
L 277.99795 189.463742 
L 282.992635 185.914998 
L 287.987321 182.562369 
L 292.982006 179.417292 
L 297.976691 176.484094 
L 302.971377 173.761168 
L 307.966062 171.242443 
L 312.960747 168.925088 
L 317.955433 166.784634 
L 322.950118 164.815417 
L 330.442146 162.155926 
L 337.934174 159.813286 
L 345.426202 157.749399 
L 352.91823 155.930192 
L 360.410258 154.325752 
L 367.902286 152.910057 
L 377.891656 151.277447 
L 387.881027 149.895117 
L 397.870398 148.725157 
L 397.870398 148.725157 
" clip-path="url(#p2a562c8b7a)" style="fill: none; stroke: #d62728; stroke-width: 1.5; stroke-linecap: square"/>
   </g>
   <g id="line2d_27">
    <path d="M 73.215852 261.03755 
L 95.691936 260.684406 
L 110.675992 260.266306 
L 123.162705 259.739593 
L 133.152076 259.119887 
L 143.141447 258.255738 
L 150.633475 257.302104 
L 163.120188 255.328406 
L 170.612216 253.821163 
L 175.606901 252.638946 
L 180.601587 251.248391 
L 185.596272 249.730969 
L 190.590957 248.031939 
L 195.585642 246.13529 
L 200.580328 244.028725 
L 205.575013 241.701747 
L 210.569698 239.146486 
L 215.564384 236.358724 
L 220.559069 233.339003 
L 225.553754 230.09368 
L 230.54844 226.635815 
L 238.040468 221.096952 
L 245.532496 215.226539 
L 260.516552 203.039102 
L 268.00858 197.063572 
L 275.500608 191.305906 
L 282.992635 185.914994 
L 287.987321 182.562369 
L 292.982006 179.417292 
L 297.976691 176.484094 
L 302.971377 173.761167 
L 307.966062 171.242441 
L 312.960747 168.918678 
L 317.955433 166.778675 
L 322.950118 164.810215 
L 330.442146 162.151756 
L 337.934174 159.809969 
L 345.426202 157.746773 
L 352.91823 155.92812 
L 360.410258 154.324122 
L 367.902286 152.90878 
L 377.891656 151.276528 
L 387.881027 149.89446 
L 397.870398 148.72469 
L 397.870398 148.72469 
" clip-path="url(#p2a562c8b7a)" style="fill: none; stroke: #9467bd; stroke-width: 1.5; stroke-linecap: square"/>
   </g>
   <g id="line2d_28">
    <path d="M 73.215852 260.975205 
L 95.691936 260.684385 
L 110.675992 260.266012 
L 123.162705 259.705752 
L 133.152076 259.03683 
L 140.644104 258.353986 
L 150.633475 257.23882 
L 155.62816 256.518769 
L 163.120188 255.286114 
L 170.612216 253.773439 
L 175.606901 252.587787 
L 180.601587 251.244712 
L 185.596272 249.730574 
L 190.590957 248.031793 
L 195.585642 246.135225 
L 200.580328 244.028697 
L 205.575013 241.701739 
L 210.569698 239.146484 
L 215.564384 236.358717 
L 220.559069 233.338992 
L 225.553754 230.093668 
L 230.54844 226.635803 
L 238.040468 221.096939 
L 245.532496 215.226526 
L 260.516552 203.039076 
L 270.505922 195.080684 
L 277.99795 189.439649 
L 282.992635 185.893915 
L 287.987321 182.544014 
L 292.982006 179.401384 
L 297.976691 176.470356 
L 302.971377 173.749342 
L 307.966062 171.23229 
L 315.45809 167.826456 
L 320.452775 165.773785 
L 327.944803 163.000737 
L 335.436831 160.557807 
L 342.928859 158.405741 
L 350.420887 156.509103 
L 357.912915 154.836624 
L 365.404943 153.361056 
L 375.394314 151.659504 
L 385.383684 150.218697 
L 395.373055 148.999057 
L 397.870398 148.72469 
L 397.870398 148.72469 
" clip-path="url(#p2a562c8b7a)" style="fill: none; stroke: #8c564b; stroke-width: 1.5; stroke-linecap: square"/>
   </g>
   <g id="line2d_29">
    <path d="M 73.215852 260.973222 
L 95.691936 260.665595 
L 110.675992 260.265385 
L 123.162705 259.705428 
L 133.152076 259.036633 
L 140.644104 258.353797 
L 150.633475 257.23882 
L 155.62816 256.518338 
L 163.120188 255.285645 
L 170.612216 253.772852 
L 175.606901 252.586814 
L 180.601587 251.212068 
L 185.596272 249.400242 
L 190.590957 247.217018 
L 195.585642 244.659855 
L 210.569698 235.996243 
L 215.564384 232.786031 
L 220.559069 229.343716 
L 225.553754 225.682996 
L 233.045782 219.829919 
L 235.543125 217.796992 
L 240.53781 214.424344 
L 250.527181 208.09617 
L 258.019209 203.66861 
L 263.013894 200.84419 
L 265.511237 199.013074 
L 273.003265 193.161777 
L 280.495293 187.643318 
L 285.489978 184.193588 
L 290.484663 180.946368 
L 295.479349 177.909396 
L 300.474034 175.083885 
L 305.468719 172.465838 
L 310.463405 170.047459 
L 315.45809 167.818413 
L 320.452775 165.766913 
L 327.944803 162.995328 
L 335.436831 160.553562 
L 342.928859 158.402421 
L 350.420887 156.506513 
L 357.912915 154.834609 
L 365.404943 153.359493 
L 375.394314 151.658395 
L 385.383684 150.21792 
L 395.373055 148.998509 
L 397.870398 148.72419 
L 397.870398 148.72419 
" clip-path="url(#p2a562c8b7a)" style="fill: none; stroke: #e377c2; stroke-width: 1.5; stroke-linecap: square"/>
   </g>
   <g id="line2d_30">
    <path d="M 73.215852 260.963251 
L 98.189279 260.599172 
L 113.173335 260.171257 
L 125.660048 259.554669 
L 135.649419 258.82182 
L 143.141447 258.083819 
L 153.130817 256.874701 
L 158.125503 256.076912 
L 163.120188 255.085385 
L 168.114873 253.936316 
L 173.109559 252.614948 
L 178.104244 251.107246 
L 183.098929 249.400123 
L 188.093615 247.481646 
L 193.0883 245.341253 
L 198.082985 242.970099 
L 203.07767 240.36153 
L 208.072356 237.511763 
L 213.067041 234.420751 
L 218.061726 231.093187 
L 223.056412 227.539532 
L 228.051097 223.776935 
L 235.543125 217.796992 
L 243.035153 211.523993 
L 263.013894 194.513743 
L 270.505922 188.512279 
L 275.500608 184.742908 
L 280.495293 181.192579 
L 285.489978 177.879182 
L 290.484663 174.811125 
L 295.479349 171.988493 
L 300.474034 169.404716 
L 302.971377 168.198959 
L 305.468719 168.2235 
L 307.966062 169.317313 
L 310.463405 170.047447 
L 315.45809 167.818412 
L 320.452775 165.766913 
L 327.944803 162.995328 
L 335.436831 160.553562 
L 342.928859 158.402421 
L 350.420887 156.506513 
L 357.912915 154.834609 
L 365.404943 153.359493 
L 375.394314 151.658395 
L 385.383684 150.217916 
L 395.373055 148.998509 
L 397.870398 148.72419 
L 397.870398 148.72419 
" clip-path="url(#p2a562c8b7a)" style="fill: none; stroke: #7f7f7f; stroke-width: 1.5; stroke-linecap: square"/>
   </g>
   <g id="line2d_31">
    <path d="M 73.215852 260.929695 
L 95.691936 260.642522 
L 110.675992 260.25629 
L 120.665363 259.821553 
L 130.654733 259.153656 
L 143.141447 258.08362 
L 153.130817 256.874239 
L 158.125503 256.076912 
L 163.120188 255.085385 
L 168.114873 253.936316 
L 173.109559 252.614948 
L 178.104244 251.107246 
L 183.098929 249.400123 
L 188.093615 247.481646 
L 193.0883 245.341253 
L 198.082985 242.970099 
L 200.580328 241.695804 
L 210.569698 235.949257 
L 215.564384 232.752491 
L 220.559069 229.321371 
L 225.553754 225.669803 
L 233.045782 219.827079 
L 240.53781 213.635813 
L 268.00858 190.46969 
L 273.003265 186.600333 
L 277.99795 182.937513 
L 282.992635 179.50403 
L 287.987321 176.31289 
L 292.982006 173.36812 
L 297.976691 170.666233 
L 302.971377 168.197976 
L 307.966062 165.95094 
L 312.960747 163.907704 
L 317.955433 162.052551 
L 322.950118 160.368695 
L 330.442146 158.12884 
L 337.934174 156.187857 
L 345.426202 154.501829 
L 352.91823 153.033431 
L 360.410258 151.75134 
L 370.399628 150.28717 
L 380.388999 149.057898 
L 392.875712 147.791749 
L 397.870398 147.356611 
L 397.870398 147.356611 
" clip-path="url(#p2a562c8b7a)" style="fill: none; stroke: #bcbd22; stroke-width: 1.5; stroke-linecap: square"/>
   </g>
   <g id="line2d_32">
    <path d="M 73.215852 260.896596 
L 95.691936 260.557401 
L 110.675992 260.139647 
L 123.162705 259.591288 
L 133.152076 258.959475 
L 140.644104 258.334007 
L 148.136132 257.469536 
L 155.62816 256.337278 
L 163.120188 254.910962 
L 168.114873 253.769644 
L 173.109559 252.458202 
L 178.104244 250.962227 
L 183.098929 249.268209 
L 188.093615 247.363769 
L 193.0883 245.237904 
L 198.082985 242.881349 
L 203.07767 240.287075 
L 208.072356 237.450973 
L 213.067041 234.372734 
L 218.061726 231.056842 
L 223.056412 227.513613 
L 228.051097 223.760107 
L 235.543125 217.791231 
L 243.035153 211.518242 
L 263.013894 194.501969 
L 270.505922 188.500124 
L 275.500608 184.731054 
L 280.495293 181.181321 
L 285.489978 177.868711 
L 290.484663 174.801544 
L 295.479349 171.97984 
L 300.474034 169.396983 
L 305.468719 167.047431 
L 310.463405 164.903993 
L 315.45809 162.957039 
L 320.452775 161.189718 
L 327.944803 158.839498 
L 335.436831 156.804204 
L 342.928859 155.037739 
L 350.420887 153.500624 
L 357.912915 152.159611 
L 367.902286 150.629359 
L 377.891656 149.345476 
L 387.881027 148.2658 
L 397.870398 147.356593 
L 397.870398 147.356593 
" clip-path="url(#p2a562c8b7a)" style="fill: none; stroke: #17becf; stroke-width: 1.5; stroke-linecap: square"/>
   </g>
   <g id="line2d_33">
    <path d="M 73.215852 260.896596 
L 95.691936 260.557401 
L 110.675992 260.139647 
L 123.162705 259.591288 
L 133.152076 258.947265 
L 143.141447 258.062666 
L 148.136132 257.469272 
L 155.62816 256.335552 
L 163.120188 254.901943 
L 168.114873 253.754221 
L 173.109559 252.435587 
L 178.104244 250.931937 
L 183.098929 249.230617 
L 188.093615 247.339919 
L 193.0883 245.226125 
L 198.082985 242.878164 
L 200.580328 241.61426 
L 208.072356 237.380446 
L 213.067041 234.298743 
L 218.061726 230.980677 
L 223.056412 227.436575 
L 228.051097 223.683457 
L 235.543125 217.717317 
L 240.53781 213.635754 
L 268.00858 190.458646 
L 273.003265 186.589668 
L 277.99795 182.927426 
L 282.992635 179.494642 
L 287.987321 176.304271 
L 292.982006 173.360288 
L 297.976691 170.65918 
L 302.971377 168.191671 
L 307.966062 165.944506 
L 312.960747 163.902057 
L 317.955433 162.04762 
L 322.950118 160.364408 
L 330.442146 158.125387 
L 337.934174 156.185092 
L 345.426202 154.499628 
L 352.91823 153.031686 
L 360.410258 151.749962 
L 370.399628 150.286172 
L 380.388999 149.05718 
L 392.875712 147.791277 
L 397.870398 147.356213 
L 397.870398 147.356213 
" clip-path="url(#p2a562c8b7a)" style="fill: none; stroke: #1f77b4; stroke-width: 1.5; stroke-linecap: square"/>
   </g>
   <g id="line2d_34">
    <path d="M 73.215852 260.892989 
L 95.691936 260.549914 
L 110.675992 260.127916 
L 123.162705 259.574518 
L 133.152076 258.937552 
L 143.141447 258.062152 
L 150.633475 257.118621 
L 158.125503 255.893302 
L 163.120188 254.901846 
L 168.114873 253.754161 
L 173.109559 252.435534 
L 178.104244 250.931864 
L 183.098929 249.229954 
L 188.093615 247.317738 
L 193.0883 245.184509 
L 198.082985 242.821273 
L 203.07767 240.221213 
L 208.072356 237.380434 
L 213.067041 234.298734 
L 218.061726 230.980669 
L 223.056412 227.436569 
L 228.051097 223.683452 
L 235.543125 217.717313 
L 243.035153 211.451523 
L 263.013894 194.463515 
L 270.505922 188.46956 
L 275.500608 184.704954 
L 280.495293 181.159097 
L 285.489978 177.849827 
L 290.484663 174.785522 
L 295.479349 171.966258 
L 300.474034 169.385477 
L 305.468719 167.041485 
L 310.463405 164.898725 
L 315.45809 162.952396 
L 320.452775 161.185644 
L 327.944803 158.836172 
L 335.436831 156.801509 
L 342.928859 155.035569 
L 350.420887 153.498886 
L 357.912915 152.158227 
L 367.902286 150.628345 
L 377.891656 149.344739 
L 387.881027 148.265268 
L 397.870398 147.356213 
L 397.870398 147.356213 
" clip-path="url(#p2a562c8b7a)" style="fill: none; stroke: #ff7f0e; stroke-width: 1.5; stroke-linecap: square"/>
   </g>
   <g id="line2d_35">
    <path d="M 73.215852 260.892373 
L 95.691936 260.548865 
L 110.675992 260.127019 
L 123.162705 259.573796 
L 133.152076 258.93695 
L 140.644104 258.218684 
L 148.136132 257.304095 
L 155.62816 256.17004 
L 163.120188 254.768935 
L 168.114873 253.654524 
L 173.109559 252.371376 
L 178.104244 250.900913 
L 183.098929 249.22732 
L 188.093615 247.317671 
L 193.0883 245.184478 
L 198.082985 242.821253 
L 200.580328 241.551155 
L 203.07767 240.069806 
L 208.072356 236.462965 
L 215.564384 230.40427 
L 223.056412 225.765675 
L 235.543125 217.680693 
L 240.53781 213.564888 
L 268.00858 190.425615 
L 273.003265 186.561412 
L 277.99795 182.903334 
L 282.992635 179.474151 
L 287.987321 176.286873 
L 292.982006 173.345535 
L 297.976691 170.646678 
L 302.971377 168.181082 
L 307.966062 165.935537 
L 312.960747 163.894462 
L 317.955433 162.041188 
L 322.950118 160.358961 
L 330.442146 158.121142 
L 337.934174 156.181786 
L 345.426202 154.497056 
L 352.91823 153.029688 
L 360.410258 151.748413 
L 370.399628 150.285071 
L 380.388999 149.056402 
L 392.875712 147.790776 
L 397.870398 147.355794 
L 397.870398 147.355794 
" clip-path="url(#p2a562c8b7a)" style="fill: none; stroke: #2ca02c; stroke-width: 1.5; stroke-linecap: square"/>
   </g>
   <g id="line2d_36">
    <path d="M 73.215852 260.864993 
L 90.697251 260.512514 
L 105.681307 260.001925 
L 118.16802 259.343757 
L 128.157391 258.587861 
L 135.649419 257.837998 
L 143.141447 256.888196 
L 150.633475 255.694971 
L 158.125503 254.213465 
L 163.120188 253.044456 
L 168.114873 251.717179 
L 173.109559 250.22224 
L 178.104244 248.552358 
L 183.098929 246.702628 
L 188.093615 244.670691 
L 193.0883 242.456861 
L 198.082985 240.064293 
L 203.07767 237.499206 
L 210.569698 233.350153 
L 213.067041 231.893725 
L 215.564384 230.16147 
L 220.559069 225.334301 
L 225.553754 219.992157 
L 230.54844 214.13711 
L 235.543125 207.787527 
L 240.53781 200.981196 
L 245.532496 193.777477 
L 253.024524 182.41038 
L 273.003265 151.508718 
L 275.500608 147.859452 
L 277.99795 149.652116 
L 282.992635 154.022149 
L 287.987321 157.928996 
L 292.982006 161.384444 
L 297.976691 164.412238 
L 302.971377 167.04442 
L 305.468719 167.031739 
L 310.463405 164.890472 
L 315.45809 162.945407 
L 320.452775 161.179724 
L 327.944803 158.831559 
L 335.436831 156.797916 
L 342.928859 155.032772 
L 350.420887 153.496712 
L 357.912915 152.15654 
L 367.902286 150.627145 
L 377.891656 149.34389 
L 387.881027 148.26467 
L 397.870398 147.355794 
L 397.870398 147.355794 
" clip-path="url(#p2a562c8b7a)" style="fill: none; stroke: #d62728; stroke-width: 1.5; stroke-linecap: square"/>
   </g>
   <g id="line2d_37">
    <path d="M 73.215852 24.662896 
L 88.199908 25.016156 
L 100.686622 25.483188 
L 110.675992 26.030274 
L 120.665363 26.810641 
L 128.157391 27.609858 
L 135.649419 28.653221 
L 140.644104 29.516782 
L 145.638789 30.540179 
L 150.633475 31.747152 
L 155.62816 33.162519 
L 160.622845 34.811597 
L 165.617531 36.719647 
L 170.612216 38.911125 
L 175.606901 41.409069 
L 180.601587 44.234535 
L 185.596272 47.406013 
L 190.590957 50.938846 
L 195.585642 54.844445 
L 200.580328 59.129434 
L 205.575013 63.794406 
L 210.569698 68.832663 
L 215.564384 74.228541 
L 220.559069 79.956108 
L 225.553754 85.977997 
L 233.045782 95.450952 
L 245.532496 111.845205 
L 253.024524 121.594863 
L 258.019209 127.876149 
L 263.013894 133.886299 
L 268.00858 139.553943 
L 273.003265 144.822361 
L 275.500608 147.293804 
L 277.99795 144.302908 
L 282.992635 137.508169 
L 287.987321 131.189467 
L 292.982006 125.387283 
L 297.976691 120.120148 
L 300.474034 117.68911 
L 302.971377 117.374766 
L 307.966062 119.617673 
L 312.960747 121.6568 
L 317.955433 123.508576 
L 322.950118 125.189643 
L 330.442146 127.426113 
L 337.934174 129.364525 
L 345.426202 131.048558 
L 352.91823 132.515422 
L 360.410258 133.796339 
L 370.399628 135.259373 
L 380.388999 136.487825 
L 392.875712 137.753302 
L 397.870398 138.188216 
L 397.870398 138.188216 
" clip-path="url(#p2a562c8b7a)" style="fill: none; stroke: #9467bd; stroke-width: 1.5; stroke-linecap: square"/>
   </g>
   <g id="line2d_38">
    <path d="M 73.215852 24.662157 
L 90.697251 24.974063 
L 103.183964 25.407861 
L 113.173335 25.946336 
L 123.162705 26.737027 
L 130.654733 27.557427 
L 138.146761 28.631797 
L 143.141447 29.518993 
L 148.136132 30.565404 
L 153.130817 31.790803 
L 158.125503 33.215026 
L 163.120188 34.857122 
L 168.114873 36.734809 
L 173.109559 38.863908 
L 178.104244 41.25751 
L 183.098929 43.925446 
L 188.093615 46.873319 
L 193.0883 50.101454 
L 198.082985 53.603371 
L 203.07767 57.364012 
L 208.072356 61.35754 
L 215.564384 67.694711 
L 233.045782 82.883006 
L 238.040468 86.886214 
L 243.035153 90.527916 
L 248.029838 93.696918 
L 250.527181 95.074684 
L 253.024524 96.30268 
L 255.521866 97.374848 
L 258.019209 98.287884 
L 260.516552 99.041512 
L 263.013894 99.638614 
L 265.511237 100.085972 
L 270.505922 100.594723 
L 273.003265 100.768534 
L 275.500608 101.377822 
L 277.99795 102.829433 
L 285.489978 107.738822 
L 290.484663 110.785227 
L 295.479349 113.596098 
L 300.474034 116.17209 
L 305.468719 118.518716 
L 310.463405 120.659198 
L 315.45809 122.603459 
L 320.452775 124.368379 
L 327.944803 126.715533 
L 335.436831 128.74838 
L 342.928859 130.512902 
L 350.420887 132.048484 
L 357.912915 133.388292 
L 367.902286 134.917357 
L 377.891656 136.200369 
L 387.881027 137.279457 
L 397.870398 138.188212 
L 397.870398 138.188212 
" clip-path="url(#p2a562c8b7a)" style="fill: none; stroke: #8c564b; stroke-width: 1.5; stroke-linecap: square"/>
   </g>
   <g id="line2d_39">
    <path d="M 73.215852 24.658927 
L 95.691936 25.038428 
L 110.675992 25.486842 
L 123.162705 26.074895 
L 133.152076 26.748646 
L 143.141447 27.666716 
L 150.633475 28.558542 
L 158.125503 29.662729 
L 165.617531 31.016708 
L 170.612216 32.181475 
L 175.606901 33.576534 
L 180.601587 35.166237 
L 185.596272 36.963963 
L 190.590957 38.981775 
L 195.585642 41.230026 
L 200.580328 43.716962 
L 205.575013 46.448028 
L 210.569698 49.425186 
L 215.564384 52.645782 
L 220.559069 56.101708 
L 225.553754 59.778432 
L 233.045782 65.657726 
L 240.53781 71.877628 
L 265.511237 93.105625 
L 273.003265 98.980878 
L 277.99795 102.643575 
L 282.992635 106.075523 
L 287.987321 109.264217 
L 292.982006 112.206001 
L 297.976691 114.904683 
L 302.971377 117.359758 
L 307.966062 119.60602 
L 312.960747 121.647547 
L 317.955433 123.501112 
L 322.950118 125.183554 
L 330.442146 127.421558 
L 337.934174 129.361077 
L 345.426202 131.04593 
L 352.91823 132.513408 
L 360.410258 133.794792 
L 370.399628 135.258283 
L 380.388999 136.487055 
L 392.875712 137.752804 
L 397.870398 138.187798 
L 397.870398 138.187798 
" clip-path="url(#p2a562c8b7a)" style="fill: none; stroke: #e377c2; stroke-width: 1.5; stroke-linecap: square"/>
   </g>
   <g id="line2d_40">
    <path d="M 73.215852 24.654473 
L 95.691936 25.026385 
L 110.675992 25.474233 
L 123.162705 26.066703 
L 133.152076 26.743105 
L 143.141447 27.66288 
L 150.633475 28.555433 
L 158.125503 29.659988 
L 165.617531 31.014097 
L 170.612216 32.114441 
L 175.606901 33.506593 
L 180.601587 35.094127 
L 185.596272 36.890446 
L 190.590957 38.907619 
L 195.585642 41.155979 
L 200.580328 43.643738 
L 205.575013 46.376291 
L 210.569698 49.355533 
L 215.564384 52.578738 
L 220.559069 56.037717 
L 225.553754 59.717856 
L 233.045782 65.602775 
L 240.53781 71.828674 
L 265.511237 93.0764 
L 273.003265 98.956753 
L 277.99795 102.622516 
L 282.992635 106.057244 
L 287.987321 109.248425 
L 292.982006 112.192413 
L 297.976691 114.89303 
L 302.971377 117.359758 
L 307.966062 119.606019 
L 312.960747 121.647546 
L 317.955433 123.501112 
L 322.950118 125.183554 
L 330.442146 127.421558 
L 337.934174 129.361077 
L 345.426202 131.045929 
L 352.91823 132.513408 
L 360.410258 133.794792 
L 370.399628 135.258283 
L 380.388999 136.487055 
L 392.875712 137.752804 
L 397.870398 138.187798 
L 397.870398 138.187798 
" clip-path="url(#p2a562c8b7a)" style="fill: none; stroke: #7f7f7f; stroke-width: 1.5; stroke-linecap: square"/>
   </g>
   <g id="line2d_41">
    <path d="M 73.215852 24.642585 
L 98.189279 25.086431 
L 113.173335 25.570123 
L 125.660048 26.198749 
L 135.649419 26.916924 
L 145.638789 27.895035 
L 153.130817 28.84482 
L 160.622845 30.019877 
L 165.617531 30.966617 
L 170.612216 32.114441 
L 175.606901 33.506593 
L 180.601587 35.094127 
L 185.596272 36.890446 
L 190.590957 38.907619 
L 195.585642 41.155979 
L 200.580328 43.643738 
L 205.575013 46.376291 
L 210.569698 49.355533 
L 215.564384 52.578738 
L 220.559069 56.037717 
L 225.553754 59.717856 
L 233.045782 65.602775 
L 240.53781 71.828674 
L 265.511237 93.0764 
L 273.003265 98.956753 
L 277.99795 102.622516 
L 282.992635 106.057241 
L 287.987321 109.248425 
L 292.982006 112.192413 
L 297.976691 114.89303 
L 302.971377 117.346507 
L 307.966062 119.59492 
L 312.960747 121.638251 
L 317.955433 123.493327 
L 322.950118 125.177033 
L 330.442146 127.416559 
L 337.934174 129.357244 
L 345.426202 131.042991 
L 352.91823 132.511156 
L 360.410258 133.793067 
L 370.399628 135.257077 
L 380.388999 136.486215 
L 392.875712 137.752271 
L 397.870398 138.187355 
L 397.870398 138.187355 
" clip-path="url(#p2a562c8b7a)" style="fill: none; stroke: #bcbd22; stroke-width: 1.5; stroke-linecap: square"/>
   </g>
   <g id="line2d_42">
    <path d="M 73.215852 24.642585 
L 98.189279 25.081705 
L 113.173335 25.570123 
L 125.660048 26.198749 
L 135.649419 26.916924 
L 145.638789 27.895035 
L 153.130817 28.84482 
L 160.622845 30.019877 
L 165.617531 30.947481 
L 173.109559 32.660338 
L 175.606901 33.289561 
L 180.601587 34.880115 
L 185.596272 36.681012 
L 190.590957 38.704242 
L 195.585642 40.960051 
L 200.580328 43.456581 
L 205.575013 46.199357 
L 210.569698 49.191702 
L 215.564384 52.431351 
L 220.559069 55.906561 
L 225.553754 59.601518 
L 233.045782 65.505181 
L 240.53781 71.744961 
L 265.511237 93.028714 
L 273.003265 98.919328 
L 277.99795 102.59085 
L 282.992635 106.030541 
L 287.987321 109.225964 
L 292.982006 112.173555 
L 297.976691 114.877216 
L 302.971377 117.346506 
L 307.966062 119.594919 
L 312.960747 121.63825 
L 317.955433 123.493327 
L 322.950118 125.177033 
L 330.442146 127.416559 
L 337.934174 129.357244 
L 345.426202 131.04299 
L 352.91823 132.511156 
L 360.410258 133.793067 
L 370.399628 135.257077 
L 380.388999 136.486215 
L 392.875712 137.752271 
L 397.870398 138.187355 
L 397.870398 138.187355 
" clip-path="url(#p2a562c8b7a)" style="fill: none; stroke: #17becf; stroke-width: 1.5; stroke-linecap: square"/>
   </g>
   <g id="line2d_43">
    <path d="M 73.215852 24.574964 
L 95.691936 24.915675 
L 110.675992 25.334494 
L 123.162705 25.890185 
L 133.152076 26.535408 
L 143.141447 27.425869 
L 150.633475 28.299455 
L 155.62816 29.016129 
L 163.120188 30.422049 
L 170.612216 32.075133 
L 175.606901 33.28935 
L 180.601587 34.87988 
L 185.596272 36.680741 
L 190.590957 38.703914 
L 195.585642 40.959623 
L 200.580328 43.455949 
L 205.575013 46.19814 
L 210.569698 49.187928 
L 215.564384 52.422406 
L 220.559069 55.893188 
L 225.553754 59.585451 
L 233.045782 65.488679 
L 240.53781 71.73239 
L 265.511237 93.028683 
L 273.003265 98.919316 
L 277.99795 102.590843 
L 282.992635 106.030536 
L 287.987321 109.225962 
L 292.982006 112.173554 
L 297.976691 114.877215 
L 300.474034 116.140386 
L 302.971377 115.398067 
L 305.468719 113.453048 
L 307.966062 114.335884 
L 315.45809 117.727689 
L 320.452775 119.777229 
L 327.944803 122.54791 
L 335.436831 124.989523 
L 342.928859 127.14072 
L 350.420887 129.036731 
L 357.912915 130.708736 
L 365.404943 132.183944 
L 375.394314 133.885137 
L 385.383684 135.325687 
L 395.373055 136.545164 
L 397.870398 136.819487 
L 397.870398 136.819487 
" clip-path="url(#p2a562c8b7a)" style="fill: none; stroke: #1f77b4; stroke-width: 1.5; stroke-linecap: square"/>
   </g>
   <g id="line2d_44">
    <path d="M 73.215852 24.574691 
L 95.691936 24.915316 
L 110.675992 25.334201 
L 123.162705 25.889958 
L 133.152076 26.535227 
L 143.141447 27.425727 
L 150.633475 28.299336 
L 158.125503 29.391889 
L 163.120188 30.360653 
L 173.109559 32.58536 
L 178.104244 34.001569 
L 183.098929 35.702728 
L 188.093615 37.622248 
L 193.0883 39.770452 
L 198.082985 42.155719 
L 203.07767 44.784009 
L 208.072356 47.657695 
L 213.067041 50.773665 
L 218.061726 54.128415 
L 223.056412 57.712435 
L 228.051097 61.507723 
L 235.543125 67.538172 
L 243.035153 73.865386 
L 263.013894 90.939061 
L 268.00858 94.950241 
L 270.505922 96.857348 
L 273.003265 98.611211 
L 275.500608 99.759497 
L 277.99795 99.904987 
L 280.495293 99.697532 
L 282.992635 99.649576 
L 287.987321 102.996928 
L 292.982006 106.138179 
L 297.976691 109.06864 
L 302.971377 111.789606 
L 307.966062 114.306919 
L 312.960747 116.629652 
L 317.955433 118.768887 
L 322.950118 120.736776 
L 330.442146 123.394552 
L 337.934174 125.73585 
L 345.426202 127.798641 
L 352.91823 129.616964 
L 360.410258 131.220698 
L 367.902286 132.635846 
L 377.891656 134.267857 
L 387.881027 135.649782 
L 397.870398 136.81941 
L 397.870398 136.81941 
" clip-path="url(#p2a562c8b7a)" style="fill: none; stroke: #ff7f0e; stroke-width: 1.5; stroke-linecap: square"/>
   </g>
   <g id="line2d_45">
    <path d="M 73.215852 24.534256 
L 93.194594 24.777902 
L 110.675992 25.220003 
L 123.162705 25.753043 
L 133.152076 26.39403 
L 140.644104 27.052558 
L 148.136132 27.9104 
L 155.62816 28.9993 
L 160.622845 29.857532 
L 168.114873 31.459035 
L 173.109559 32.58536 
L 185.596272 36.15753 
L 190.590957 37.859204 
L 195.585642 39.753094 
L 200.580328 41.851197 
L 205.575013 44.164051 
L 210.569698 46.699949 
L 215.564384 49.463726 
L 220.559069 52.455782 
L 225.553754 55.670941 
L 230.54844 59.097392 
L 238.040468 64.590164 
L 245.532496 70.418428 
L 258.019209 80.51685 
L 268.00858 88.530149 
L 275.500608 94.270293 
L 280.495293 97.902022 
L 285.489978 101.343665 
L 290.484663 104.587742 
L 295.479349 107.621346 
L 300.474034 110.443711 
L 305.468719 113.063464 
L 310.463405 115.483576 
L 315.45809 117.714283 
L 320.452775 119.767317 
L 327.944803 122.540899 
L 335.436831 124.984323 
L 342.928859 127.136787 
L 350.420887 129.033731 
L 357.912915 130.706436 
L 365.404943 132.182179 
L 375.394314 133.883896 
L 385.383684 135.32482 
L 395.373055 136.544556 
L 397.870398 136.818931 
L 397.870398 136.818931 
" clip-path="url(#p2a562c8b7a)" style="fill: none; stroke: #2ca02c; stroke-width: 1.5; stroke-linecap: square"/>
   </g>
   <g id="line2d_46">
    <path d="M 73.215852 24.518321 
L 95.691936 24.823335 
L 113.173335 25.299045 
L 125.660048 25.871315 
L 135.649419 26.562126 
L 143.141447 27.273245 
L 150.633475 28.199668 
L 158.125503 29.388821 
L 165.617531 30.732357 
L 170.612216 31.896002 
L 183.098929 35.372228 
L 188.093615 36.982581 
L 193.0883 38.778918 
L 198.082985 40.773645 
L 203.07767 42.978139 
L 208.072356 45.401964 
L 213.067041 48.051764 
L 218.061726 50.930363 
L 223.056412 54.035407 
L 228.051097 57.358558 
L 233.045782 60.88418 
L 240.53781 66.500567 
L 248.029838 72.412859 
L 270.505922 90.474328 
L 277.99795 96.104304 
L 282.992635 99.630843 
L 287.987321 102.980634 
L 292.982006 106.124058 
L 297.976691 109.056441 
L 302.971377 111.779093 
L 307.966062 114.297878 
L 312.960747 116.621893 
L 317.955433 118.762238 
L 322.950118 120.731086 
L 330.442146 123.390058 
L 337.934174 125.732309 
L 345.426202 127.795858 
L 352.91823 129.614783 
L 360.410258 131.218992 
L 367.902286 132.634516 
L 377.891656 134.266905 
L 387.881027 135.649105 
L 397.870398 136.818931 
L 397.870398 136.818931 
" clip-path="url(#p2a562c8b7a)" style="fill: none; stroke: #d62728; stroke-width: 1.5; stroke-linecap: square"/>
   </g>
   <g id="line2d_47">
    <path d="M 73.215852 24.514078 
L 95.691936 24.823335 
L 113.173335 25.299045 
L 125.660048 25.871315 
L 135.649419 26.562126 
L 143.141447 27.273245 
L 150.633475 28.199668 
L 158.125503 29.388724 
L 165.617531 30.732277 
L 170.612216 31.895804 
L 183.098929 35.295198 
L 188.093615 36.904577 
L 193.0883 38.700825 
L 198.082985 40.696302 
L 203.07767 42.902315 
L 208.072356 45.328345 
L 213.067041 47.98094 
L 218.061726 50.862821 
L 223.056412 53.971532 
L 228.051097 57.298632 
L 233.045782 60.828594 
L 240.53781 66.451969 
L 248.029838 72.371185 
L 270.505922 90.451297 
L 277.99795 96.086567 
L 282.992635 99.63084 
L 287.987321 102.980634 
L 292.982006 106.124058 
L 297.976691 109.056441 
L 302.971377 111.764418 
L 307.966062 114.285462 
L 312.960747 116.611441 
L 317.955433 118.753444 
L 322.950118 120.72369 
L 330.442146 123.384355 
L 337.934174 125.727913 
L 345.426202 127.792473 
L 352.91823 129.612178 
L 360.410258 131.21699 
L 367.902286 132.63298 
L 377.891656 134.26583 
L 387.881027 135.648355 
L 397.870398 136.81841 
L 397.870398 136.81841 
" clip-path="url(#p2a562c8b7a)" style="fill: none; stroke: #9467bd; stroke-width: 1.5; stroke-linecap: square"/>
   </g>
   <g id="line2d_48">
    <path d="M 73.215852 24.497249 
L 98.189279 24.870683 
L 115.670677 25.340585 
L 128.157391 25.906474 
L 138.146761 26.604212 
L 145.638789 27.353992 
L 153.130817 28.354256 
L 160.622845 29.641168 
L 168.114873 31.243638 
L 173.109559 32.506922 
L 185.596272 36.077318 
L 190.590957 37.77854 
L 195.585642 39.6729 
L 200.580328 41.772344 
L 205.575013 44.087329 
L 210.569698 46.626055 
L 215.564384 49.393246 
L 220.559069 52.389185 
L 225.553754 55.60858 
L 230.54844 59.039509 
L 238.040468 64.538617 
L 245.532496 70.373263 
L 258.019209 80.481852 
L 268.00858 88.502434 
L 275.500608 94.247379 
L 280.495293 97.881964 
L 287.987321 102.956074 
L 292.982006 106.103306 
L 297.976691 109.038934 
L 302.971377 111.764341 
L 307.966062 114.285457 
L 312.960747 116.611439 
L 317.955433 118.753443 
L 322.950118 120.723689 
L 330.442146 123.384354 
L 337.934174 125.727913 
L 345.426202 127.792472 
L 352.91823 129.612178 
L 360.410258 131.21699 
L 367.902286 132.63298 
L 377.891656 134.26583 
L 387.881027 135.648355 
L 397.870398 136.81841 
L 397.870398 136.81841 
" clip-path="url(#p2a562c8b7a)" style="fill: none; stroke: #8c564b; stroke-width: 1.5; stroke-linecap: square"/>
   </g>
   <g id="line2d_49">
    <path d="M 73.215852 24.49633 
L 100.686622 24.847596 
L 113.173335 25.156061 
L 125.660048 25.703416 
L 135.649419 26.375553 
L 143.141447 27.074615 
L 150.633475 27.991353 
L 158.125503 29.176839 
L 163.120188 30.142973 
L 173.109559 32.370585 
L 178.104244 33.647178 
L 183.098929 35.086249 
L 188.093615 36.700708 
L 193.0883 38.503356 
L 198.082985 40.506436 
L 203.07767 42.721126 
L 208.072356 45.156764 
L 213.067041 47.819742 
L 218.061726 50.712609 
L 223.056412 53.83273 
L 228.051097 57.171472 
L 233.045782 60.713111 
L 240.53781 66.35364 
L 248.029838 72.289049 
L 270.505922 90.407952 
L 277.99795 96.052411 
L 282.992635 99.601834 
L 287.987321 102.956071 
L 292.982006 106.103302 
L 297.976691 109.038926 
L 302.971377 111.760222 
L 305.468719 112.812516 
L 307.966062 111.112031 
L 312.960747 107.388839 
L 317.955433 104.098332 
L 322.950118 101.215616 
L 327.944803 98.702184 
L 332.939489 96.519211 
L 337.934174 94.629394 
L 342.928859 92.997996 
L 347.923545 91.593189 
L 352.91823 90.38622 
L 357.912915 89.351341 
L 365.404943 88.072376 
L 372.896971 87.063728 
L 380.388999 86.271159 
L 390.37837 85.475513 
L 397.870398 85.029916 
L 397.870398 85.029916 
" clip-path="url(#p2a562c8b7a)" style="fill: none; stroke: #e377c2; stroke-width: 1.5; stroke-linecap: square"/>
   </g>
   <g id="line2d_50">
    <path d="M 73.215852 24.49633 
L 100.686622 24.842017 
L 110.675992 25.073961 
L 123.162705 25.571741 
L 133.152076 26.182733 
L 140.644104 26.81931 
L 148.136132 27.634474 
L 155.62816 28.701894 
L 160.622845 29.584521 
L 165.617531 30.622988 
L 178.104244 33.647121 
L 183.098929 35.0862 
L 188.093615 36.700666 
L 193.0883 38.50332 
L 198.082985 40.506406 
L 203.07767 42.721101 
L 208.072356 45.156743 
L 213.067041 47.819724 
L 218.061726 50.712595 
L 223.056412 53.832719 
L 228.051097 57.171463 
L 233.045782 60.713104 
L 240.53781 66.353636 
L 248.029838 72.289046 
L 270.505922 90.40795 
L 277.99795 96.05241 
L 280.495293 97.850474 
L 282.992635 99.357098 
L 287.987321 98.44654 
L 295.479349 96.756995 
L 315.45809 92.027847 
L 322.950118 90.514146 
L 330.442146 89.206559 
L 337.934174 88.102731 
L 345.426202 87.186635 
L 355.415573 86.218793 
L 365.404943 85.489736 
L 377.891656 84.836587 
L 392.875712 84.324189 
L 397.870398 84.201313 
L 397.870398 84.201313 
" clip-path="url(#p2a562c8b7a)" style="fill: none; stroke: #7f7f7f; stroke-width: 1.5; stroke-linecap: square"/>
   </g>
   <g id="line2d_51">
    <path d="M 73.215852 24.481711 
L 93.194594 24.667693 
L 120.665363 25.254105 
L 138.146761 25.821108 
L 155.62816 26.62972 
L 175.606901 27.803767 
L 205.575013 29.803231 
L 218.061726 30.784631 
L 225.553754 31.526271 
L 233.045782 32.497305 
L 238.040468 33.34145 
L 243.035153 34.401151 
L 248.029838 35.764251 
L 253.024524 37.671142 
L 258.019209 39.834653 
L 263.013894 42.233734 
L 268.00858 44.831736 
L 275.500608 48.990838 
L 292.982006 58.882179 
L 300.474034 62.772269 
L 305.468719 65.158713 
L 310.463405 67.358731 
L 315.45809 69.364742 
L 320.452775 71.176516 
L 325.447461 72.799384 
L 330.442146 74.242711 
L 335.436831 75.518343 
L 342.928859 77.146774 
L 350.420887 78.47506 
L 357.912915 79.549021 
L 365.404943 80.410874 
L 375.394314 81.293978 
L 385.383684 81.940444 
L 397.870398 82.504763 
L 397.870398 82.504763 
" clip-path="url(#p2a562c8b7a)" style="fill: none; stroke: #bcbd22; stroke-width: 1.5; stroke-linecap: square"/>
   </g>
   <g id="line2d_52">
    <path d="M 73.215852 24.481711 
L 93.194594 24.667574 
L 135.649419 25.519742 
L 165.617531 26.343728 
L 188.093615 27.154369 
L 200.580328 27.77739 
L 210.569698 28.479599 
L 218.061726 29.211732 
L 225.553754 30.208922 
L 230.54844 31.068836 
L 235.543125 32.120454 
L 240.53781 33.392672 
L 245.532496 34.909273 
L 255.521866 38.282998 
L 260.516552 40.379802 
L 265.511237 42.762342 
L 270.505922 45.379776 
L 277.99795 49.599027 
L 292.982006 58.209074 
L 300.474034 62.197776 
L 305.468719 64.648904 
L 310.463405 66.910142 
L 315.45809 68.972731 
L 320.452775 70.835882 
L 325.447461 72.504789 
L 330.442146 73.988937 
L 335.436831 75.30048 
L 342.928859 76.974429 
L 350.420887 78.339473 
L 357.912915 79.442875 
L 365.404943 80.328134 
L 375.394314 81.234966 
L 385.383684 81.898617 
L 397.870398 82.477779 
L 397.870398 82.477779 
" clip-path="url(#p2a562c8b7a)" style="fill: none; stroke: #17becf; stroke-width: 1.5; stroke-linecap: square"/>
   </g>
   <g id="line2d_53">
    <path d="M 73.215852 24.428595 
L 143.141447 24.76881 
L 185.596272 24.832382 
L 230.54844 24.648324 
L 297.976691 24.382042 
L 392.875712 24.329821 
L 397.870398 24.329437 
L 397.870398 24.329437 
" clip-path="url(#p2a562c8b7a)" style="fill: none; stroke: #1f77b4; stroke-width: 1.5; stroke-linecap: square"/>
   </g>
   <g id="line2d_54">
    <path d="M 73.215852 24.428493 
L 143.141447 24.76881 
L 185.596272 24.832382 
L 230.54844 24.648324 
L 297.976691 24.382042 
L 392.875712 24.329821 
L 397.870398 24.329437 
L 397.870398 24.329437 
" clip-path="url(#p2a562c8b7a)" style="fill: none; stroke: #ff7f0e; stroke-width: 1.5; stroke-linecap: square"/>
   </g>
   <g id="line2d_55">
    <path d="M 73.215852 24.414024 
L 220.559069 24.68519 
L 310.463405 24.362183 
L 397.870398 24.329314 
L 397.870398 24.329314 
" clip-path="url(#p2a562c8b7a)" style="fill: none; stroke: #2ca02c; stroke-width: 1.5; stroke-linecap: square"/>
   </g>
   <g id="line2d_56">
    <path d="M 73.215852 24.413882 
L 195.585642 24.607822 
L 397.870398 24.328809 
L 397.870398 24.328809 
" clip-path="url(#p2a562c8b7a)" style="fill: none; stroke: #d62728; stroke-width: 1.5; stroke-linecap: square"/>
   </g>
   <g id="line2d_57">
    <path d="M 73.215852 24.396115 
L 198.082985 24.603778 
L 397.870398 24.328809 
L 397.870398 24.328809 
" clip-path="url(#p2a562c8b7a)" style="fill: none; stroke: #9467bd; stroke-width: 1.5; stroke-linecap: square"/>
   </g>
   <g id="line2d_58">
    <path d="M 73.215852 24.396115 
L 175.606901 24.547763 
L 253.024524 24.40601 
L 345.426202 24.331588 
L 397.870398 24.328216 
L 397.870398 24.328216 
" clip-path="url(#p2a562c8b7a)" style="fill: none; stroke: #8c564b; stroke-width: 1.5; stroke-linecap: square"/>
   </g>
   <g id="line2d_59">
    <path d="M 73.215852 24.360215 
L 128.157391 24.45405 
L 158.125503 24.544282 
L 220.559069 24.480539 
L 330.442146 24.334247 
L 397.870398 24.328216 
L 397.870398 24.328216 
" clip-path="url(#p2a562c8b7a)" style="fill: none; stroke: #e377c2; stroke-width: 1.5; stroke-linecap: square"/>
   </g>
   <g id="line2d_60">
    <path d="M 73.215852 24.328411 
L 397.870398 24.327588 
L 397.870398 24.327588 
" clip-path="url(#p2a562c8b7a)" style="fill: none; stroke: #7f7f7f; stroke-width: 1.5; stroke-linecap: square"/>
   </g>
   <g id="line2d_61">
    <path d="M 73.215852 23.985992 
L 103.183964 23.553603 
L 123.162705 23.055332 
L 140.644104 22.399999 
L 160.622845 21.394982 
L 193.0883 19.667474 
L 203.07767 19.361933 
L 210.569698 19.296 
L 218.061726 19.413222 
L 225.553754 19.740178 
L 233.045782 20.274398 
L 245.532496 21.467614 
L 258.019209 22.618671 
L 268.00858 23.273746 
L 277.99795 23.689391 
L 290.484663 23.982036 
L 310.463405 24.18811 
L 347.923545 24.295854 
L 397.870398 24.322414 
L 397.870398 24.322414 
" clip-path="url(#p2a562c8b7a)" style="fill: none; stroke: #bcbd22; stroke-width: 1.5; stroke-linecap: square"/>
   </g>
   <g id="patch_3">
    <path d="M 56.983125 273.312 
L 56.983125 7.2 
" style="fill: none; stroke: #000000; stroke-width: 0.8; stroke-linejoin: miter; stroke-linecap: square"/>
   </g>
   <g id="patch_4">
    <path d="M 414.103125 273.312 
L 414.103125 7.2 
" style="fill: none; stroke: #000000; stroke-width: 0.8; stroke-linejoin: miter; stroke-linecap: square"/>
   </g>
   <g id="patch_5">
    <path d="M 56.983125 273.312 
L 414.103125 273.312 
" style="fill: none; stroke: #000000; stroke-width: 0.8; stroke-linejoin: miter; stroke-linecap: square"/>
   </g>
   <g id="patch_6">
    <path d="M 56.983125 7.2 
L 414.103125 7.2 
" style="fill: none; stroke: #000000; stroke-width: 0.8; stroke-linejoin: miter; stroke-linecap: square"/>
   </g>
  </g>
 </g>
 <defs>
  <clipPath id="p2a562c8b7a">
   <rect x="56.983125" y="7.2" width="357.12" height="266.112"/>
  </clipPath>
 </defs>
</svg>
