<?xml version="1.0" encoding="utf-8" standalone="no"?>
<!DOCTYPE svg PUBLIC "-//W3C//DTD SVG 1.1//EN"
  "http://www.w3.org/Graphics/SVG/1.1/DTD/svg11.dtd">
<svg xmlns:xlink="http://www.w3.org/1999/xlink" width="419.863125pt" height="316.675125pt" viewBox="0 0 419.863125 316.675125" xmlns="http://www.w3.org/2000/svg" version="1.1">
 <metadata>
  <rdf:RDF xmlns:dc="http://purl.org/dc/elements/1.1/" xmlns:cc="http://creativecommons.org/ns#" xmlns:rdf="http://www.w3.org/1999/02/22-rdf-syntax-ns#">
   <cc:Work>
    <dc:type rdf:resource="http://purl.org/dc/dcmitype/StillImage"/>
    <dc:date>2025-03-10T12:31:51.586818</dc:date>
    <dc:format>image/svg+xml</dc:format>
    <dc:creator>
     <cc:Agent>
      <dc:title>Matplotlib v3.10.0, https://matplotlib.org/</dc:title>
     </cc:Agent>
    </dc:creator>
   </cc:Work>
  </rdf:RDF>
 </metadata>
 <defs>
  <style type="text/css">*{stroke-linejoin: round; stroke-linecap: butt}</style>
 </defs>
 <g id="figure_1">
  <g id="patch_1">
   <path d="M 0 316.675125 
L 419.863125 316.675125 
L 419.863125 0 
L 0 0 
z
" style="fill: #ffffff"/>
  </g>
  <g id="axes_1">
   <g id="patch_2">
    <path d="M 55.543125 273.312 
L 412.663125 273.312 
L 412.663125 7.2 
L 55.543125 7.2 
z
" style="fill: #ffffff"/>
   </g>
   <g id="matplotlib.axis_1">
    <g id="xtick_1">
     <g id="line2d_1">
      <defs>
       <path id="m55c21e3f0a" d="M 0 0 
L 0 3.5 
" style="stroke: #000000; stroke-width: 0.8"/>
      </defs>
      <g>
       <use xlink:href="#m55c21e3f0a" x="84.262566" y="273.312" style="stroke: #000000; stroke-width: 0.8"/>
      </g>
     </g>
     <g id="text_1">
      <!-- 0.5 -->
      <g transform="translate(76.311003 287.910437) scale(0.1 -0.1)">
       <defs>
        <path id="DejaVuSans-30" d="M 2034 4250 
Q 1547 4250 1301 3770 
Q 1056 3291 1056 2328 
Q 1056 1369 1301 889 
Q 1547 409 2034 409 
Q 2525 409 2770 889 
Q 3016 1369 3016 2328 
Q 3016 3291 2770 3770 
Q 2525 4250 2034 4250 
z
M 2034 4750 
Q 2819 4750 3233 4129 
Q 3647 3509 3647 2328 
Q 3647 1150 3233 529 
Q 2819 -91 2034 -91 
Q 1250 -91 836 529 
Q 422 1150 422 2328 
Q 422 3509 836 4129 
Q 1250 4750 2034 4750 
z
" transform="scale(0.015625)"/>
        <path id="DejaVuSans-2e" d="M 684 794 
L 1344 794 
L 1344 0 
L 684 0 
L 684 794 
z
" transform="scale(0.015625)"/>
        <path id="DejaVuSans-35" d="M 691 4666 
L 3169 4666 
L 3169 4134 
L 1269 4134 
L 1269 2991 
Q 1406 3038 1543 3061 
Q 1681 3084 1819 3084 
Q 2600 3084 3056 2656 
Q 3513 2228 3513 1497 
Q 3513 744 3044 326 
Q 2575 -91 1722 -91 
Q 1428 -91 1123 -41 
Q 819 9 494 109 
L 494 744 
Q 775 591 1075 516 
Q 1375 441 1709 441 
Q 2250 441 2565 725 
Q 2881 1009 2881 1497 
Q 2881 1984 2565 2268 
Q 2250 2553 1709 2553 
Q 1456 2553 1204 2497 
Q 953 2441 691 2322 
L 691 4666 
z
" transform="scale(0.015625)"/>
       </defs>
       <use xlink:href="#DejaVuSans-30"/>
       <use xlink:href="#DejaVuSans-2e" transform="translate(63.623047 0)"/>
       <use xlink:href="#DejaVuSans-35" transform="translate(95.410156 0)"/>
      </g>
     </g>
    </g>
    <g id="xtick_2">
     <g id="line2d_2">
      <g>
       <use xlink:href="#m55c21e3f0a" x="146.696132" y="273.312" style="stroke: #000000; stroke-width: 0.8"/>
      </g>
     </g>
     <g id="text_2">
      <!-- 1.0 -->
      <g transform="translate(138.744569 287.910437) scale(0.1 -0.1)">
       <defs>
        <path id="DejaVuSans-31" d="M 794 531 
L 1825 531 
L 1825 4091 
L 703 3866 
L 703 4441 
L 1819 4666 
L 2450 4666 
L 2450 531 
L 3481 531 
L 3481 0 
L 794 0 
L 794 531 
z
" transform="scale(0.015625)"/>
       </defs>
       <use xlink:href="#DejaVuSans-31"/>
       <use xlink:href="#DejaVuSans-2e" transform="translate(63.623047 0)"/>
       <use xlink:href="#DejaVuSans-30" transform="translate(95.410156 0)"/>
      </g>
     </g>
    </g>
    <g id="xtick_3">
     <g id="line2d_3">
      <g>
       <use xlink:href="#m55c21e3f0a" x="209.129698" y="273.312" style="stroke: #000000; stroke-width: 0.8"/>
      </g>
     </g>
     <g id="text_3">
      <!-- 1.5 -->
      <g transform="translate(201.178136 287.910437) scale(0.1 -0.1)">
       <use xlink:href="#DejaVuSans-31"/>
       <use xlink:href="#DejaVuSans-2e" transform="translate(63.623047 0)"/>
       <use xlink:href="#DejaVuSans-35" transform="translate(95.410156 0)"/>
      </g>
     </g>
    </g>
    <g id="xtick_4">
     <g id="line2d_4">
      <g>
       <use xlink:href="#m55c21e3f0a" x="271.563265" y="273.312" style="stroke: #000000; stroke-width: 0.8"/>
      </g>
     </g>
     <g id="text_4">
      <!-- 2.0 -->
      <g transform="translate(263.611702 287.910437) scale(0.1 -0.1)">
       <defs>
        <path id="DejaVuSans-32" d="M 1228 531 
L 3431 531 
L 3431 0 
L 469 0 
L 469 531 
Q 828 903 1448 1529 
Q 2069 2156 2228 2338 
Q 2531 2678 2651 2914 
Q 2772 3150 2772 3378 
Q 2772 3750 2511 3984 
Q 2250 4219 1831 4219 
Q 1534 4219 1204 4116 
Q 875 4013 500 3803 
L 500 4441 
Q 881 4594 1212 4672 
Q 1544 4750 1819 4750 
Q 2544 4750 2975 4387 
Q 3406 4025 3406 3419 
Q 3406 3131 3298 2873 
Q 3191 2616 2906 2266 
Q 2828 2175 2409 1742 
Q 1991 1309 1228 531 
z
" transform="scale(0.015625)"/>
       </defs>
       <use xlink:href="#DejaVuSans-32"/>
       <use xlink:href="#DejaVuSans-2e" transform="translate(63.623047 0)"/>
       <use xlink:href="#DejaVuSans-30" transform="translate(95.410156 0)"/>
      </g>
     </g>
    </g>
    <g id="xtick_5">
     <g id="line2d_5">
      <g>
       <use xlink:href="#m55c21e3f0a" x="333.996831" y="273.312" style="stroke: #000000; stroke-width: 0.8"/>
      </g>
     </g>
     <g id="text_5">
      <!-- 2.5 -->
      <g transform="translate(326.045269 287.910437) scale(0.1 -0.1)">
       <use xlink:href="#DejaVuSans-32"/>
       <use xlink:href="#DejaVuSans-2e" transform="translate(63.623047 0)"/>
       <use xlink:href="#DejaVuSans-35" transform="translate(95.410156 0)"/>
      </g>
     </g>
    </g>
    <g id="xtick_6">
     <g id="line2d_6">
      <g>
       <use xlink:href="#m55c21e3f0a" x="396.430398" y="273.312" style="stroke: #000000; stroke-width: 0.8"/>
      </g>
     </g>
     <g id="text_6">
      <!-- 3.0 -->
      <g transform="translate(388.478835 287.910437) scale(0.1 -0.1)">
       <defs>
        <path id="DejaVuSans-33" d="M 2597 2516 
Q 3050 2419 3304 2112 
Q 3559 1806 3559 1356 
Q 3559 666 3084 287 
Q 2609 -91 1734 -91 
Q 1441 -91 1130 -33 
Q 819 25 488 141 
L 488 750 
Q 750 597 1062 519 
Q 1375 441 1716 441 
Q 2309 441 2620 675 
Q 2931 909 2931 1356 
Q 2931 1769 2642 2001 
Q 2353 2234 1838 2234 
L 1294 2234 
L 1294 2753 
L 1863 2753 
Q 2328 2753 2575 2939 
Q 2822 3125 2822 3475 
Q 2822 3834 2567 4026 
Q 2313 4219 1838 4219 
Q 1578 4219 1281 4162 
Q 984 4106 628 3988 
L 628 4550 
Q 988 4650 1302 4700 
Q 1616 4750 1894 4750 
Q 2613 4750 3031 4423 
Q 3450 4097 3450 3541 
Q 3450 3153 3228 2886 
Q 3006 2619 2597 2516 
z
" transform="scale(0.015625)"/>
       </defs>
       <use xlink:href="#DejaVuSans-33"/>
       <use xlink:href="#DejaVuSans-2e" transform="translate(63.623047 0)"/>
       <use xlink:href="#DejaVuSans-30" transform="translate(95.410156 0)"/>
      </g>
     </g>
    </g>
    <g id="text_7">
     <!-- d -->
     <g transform="translate(229.024375 306.147625) scale(0.16 -0.16)">
      <defs>
       <path id="DejaVuSans-64" d="M 2906 2969 
L 2906 4863 
L 3481 4863 
L 3481 0 
L 2906 0 
L 2906 525 
Q 2725 213 2448 61 
Q 2172 -91 1784 -91 
Q 1150 -91 751 415 
Q 353 922 353 1747 
Q 353 2572 751 3078 
Q 1150 3584 1784 3584 
Q 2172 3584 2448 3432 
Q 2725 3281 2906 2969 
z
M 947 1747 
Q 947 1113 1208 752 
Q 1469 391 1925 391 
Q 2381 391 2643 752 
Q 2906 1113 2906 1747 
Q 2906 2381 2643 2742 
Q 2381 3103 1925 3103 
Q 1469 3103 1208 2742 
Q 947 2381 947 1747 
z
" transform="scale(0.015625)"/>
      </defs>
      <use xlink:href="#DejaVuSans-64"/>
     </g>
    </g>
   </g>
   <g id="matplotlib.axis_2">
    <g id="ytick_1">
     <g id="line2d_7">
      <defs>
       <path id="ma575bbef3f" d="M 0 0 
L -3.5 0 
" style="stroke: #000000; stroke-width: 0.8"/>
      </defs>
      <g>
       <use xlink:href="#ma575bbef3f" x="55.543125" y="261.216244" style="stroke: #000000; stroke-width: 0.8"/>
      </g>
     </g>
     <g id="text_8">
      <!-- 0.0 -->
      <g transform="translate(32.64 265.015463) scale(0.1 -0.1)">
       <use xlink:href="#DejaVuSans-30"/>
       <use xlink:href="#DejaVuSans-2e" transform="translate(63.623047 0)"/>
       <use xlink:href="#DejaVuSans-30" transform="translate(95.410156 0)"/>
      </g>
     </g>
    </g>
    <g id="ytick_2">
     <g id="line2d_8">
      <g>
       <use xlink:href="#ma575bbef3f" x="55.543125" y="212.832069" style="stroke: #000000; stroke-width: 0.8"/>
      </g>
     </g>
     <g id="text_9">
      <!-- 0.2 -->
      <g transform="translate(32.64 216.631288) scale(0.1 -0.1)">
       <use xlink:href="#DejaVuSans-30"/>
       <use xlink:href="#DejaVuSans-2e" transform="translate(63.623047 0)"/>
       <use xlink:href="#DejaVuSans-32" transform="translate(95.410156 0)"/>
      </g>
     </g>
    </g>
    <g id="ytick_3">
     <g id="line2d_9">
      <g>
       <use xlink:href="#ma575bbef3f" x="55.543125" y="164.447894" style="stroke: #000000; stroke-width: 0.8"/>
      </g>
     </g>
     <g id="text_10">
      <!-- 0.4 -->
      <g transform="translate(32.64 168.247113) scale(0.1 -0.1)">
       <defs>
        <path id="DejaVuSans-34" d="M 2419 4116 
L 825 1625 
L 2419 1625 
L 2419 4116 
z
M 2253 4666 
L 3047 4666 
L 3047 1625 
L 3713 1625 
L 3713 1100 
L 3047 1100 
L 3047 0 
L 2419 0 
L 2419 1100 
L 313 1100 
L 313 1709 
L 2253 4666 
z
" transform="scale(0.015625)"/>
       </defs>
       <use xlink:href="#DejaVuSans-30"/>
       <use xlink:href="#DejaVuSans-2e" transform="translate(63.623047 0)"/>
       <use xlink:href="#DejaVuSans-34" transform="translate(95.410156 0)"/>
      </g>
     </g>
    </g>
    <g id="ytick_4">
     <g id="line2d_10">
      <g>
       <use xlink:href="#ma575bbef3f" x="55.543125" y="116.063719" style="stroke: #000000; stroke-width: 0.8"/>
      </g>
     </g>
     <g id="text_11">
      <!-- 0.6 -->
      <g transform="translate(32.64 119.862938) scale(0.1 -0.1)">
       <defs>
        <path id="DejaVuSans-36" d="M 2113 2584 
Q 1688 2584 1439 2293 
Q 1191 2003 1191 1497 
Q 1191 994 1439 701 
Q 1688 409 2113 409 
Q 2538 409 2786 701 
Q 3034 994 3034 1497 
Q 3034 2003 2786 2293 
Q 2538 2584 2113 2584 
z
M 3366 4563 
L 3366 3988 
Q 3128 4100 2886 4159 
Q 2644 4219 2406 4219 
Q 1781 4219 1451 3797 
Q 1122 3375 1075 2522 
Q 1259 2794 1537 2939 
Q 1816 3084 2150 3084 
Q 2853 3084 3261 2657 
Q 3669 2231 3669 1497 
Q 3669 778 3244 343 
Q 2819 -91 2113 -91 
Q 1303 -91 875 529 
Q 447 1150 447 2328 
Q 447 3434 972 4092 
Q 1497 4750 2381 4750 
Q 2619 4750 2861 4703 
Q 3103 4656 3366 4563 
z
" transform="scale(0.015625)"/>
       </defs>
       <use xlink:href="#DejaVuSans-30"/>
       <use xlink:href="#DejaVuSans-2e" transform="translate(63.623047 0)"/>
       <use xlink:href="#DejaVuSans-36" transform="translate(95.410156 0)"/>
      </g>
     </g>
    </g>
    <g id="ytick_5">
     <g id="line2d_11">
      <g>
       <use xlink:href="#ma575bbef3f" x="55.543125" y="67.679544" style="stroke: #000000; stroke-width: 0.8"/>
      </g>
     </g>
     <g id="text_12">
      <!-- 0.8 -->
      <g transform="translate(32.64 71.478763) scale(0.1 -0.1)">
       <defs>
        <path id="DejaVuSans-38" d="M 2034 2216 
Q 1584 2216 1326 1975 
Q 1069 1734 1069 1313 
Q 1069 891 1326 650 
Q 1584 409 2034 409 
Q 2484 409 2743 651 
Q 3003 894 3003 1313 
Q 3003 1734 2745 1975 
Q 2488 2216 2034 2216 
z
M 1403 2484 
Q 997 2584 770 2862 
Q 544 3141 544 3541 
Q 544 4100 942 4425 
Q 1341 4750 2034 4750 
Q 2731 4750 3128 4425 
Q 3525 4100 3525 3541 
Q 3525 3141 3298 2862 
Q 3072 2584 2669 2484 
Q 3125 2378 3379 2068 
Q 3634 1759 3634 1313 
Q 3634 634 3220 271 
Q 2806 -91 2034 -91 
Q 1263 -91 848 271 
Q 434 634 434 1313 
Q 434 1759 690 2068 
Q 947 2378 1403 2484 
z
M 1172 3481 
Q 1172 3119 1398 2916 
Q 1625 2713 2034 2713 
Q 2441 2713 2670 2916 
Q 2900 3119 2900 3481 
Q 2900 3844 2670 4047 
Q 2441 4250 2034 4250 
Q 1625 4250 1398 4047 
Q 1172 3844 1172 3481 
z
" transform="scale(0.015625)"/>
       </defs>
       <use xlink:href="#DejaVuSans-30"/>
       <use xlink:href="#DejaVuSans-2e" transform="translate(63.623047 0)"/>
       <use xlink:href="#DejaVuSans-38" transform="translate(95.410156 0)"/>
      </g>
     </g>
    </g>
    <g id="ytick_6">
     <g id="line2d_12">
      <g>
       <use xlink:href="#ma575bbef3f" x="55.543125" y="19.295369" style="stroke: #000000; stroke-width: 0.8"/>
      </g>
     </g>
     <g id="text_13">
      <!-- 1.0 -->
      <g transform="translate(32.64 23.094588) scale(0.1 -0.1)">
       <use xlink:href="#DejaVuSans-31"/>
       <use xlink:href="#DejaVuSans-2e" transform="translate(63.623047 0)"/>
       <use xlink:href="#DejaVuSans-30" transform="translate(95.410156 0)"/>
      </g>
     </g>
    </g>
    <g id="text_14">
     <!-- $\rho^{(2)}_{upup}$ eig -->
     <g transform="translate(21.92 174.576) rotate(-90) scale(0.16 -0.16)">
      <defs>
       <path id="DejaVuSans-Oblique-3c1" d="M 1203 2875 
Q 1453 3194 1981 3475 
Q 2188 3584 2756 3584 
Q 3394 3584 3694 3078 
Q 3994 2572 3834 1747 
Q 3672 922 3175 415 
Q 2678 -91 2041 -91 
Q 1656 -91 1409 63 
Q 1163 213 1044 525 
L 681 -1331 
L 103 -1331 
L 697 1716 
Q 838 2438 1203 2875 
z
M 3238 1747 
Q 3359 2381 3169 2744 
Q 2978 3103 2522 3103 
Q 2066 3103 1734 2744 
Q 1403 2381 1281 1747 
Q 1156 1113 1347 750 
Q 1538 391 1994 391 
Q 2450 391 2781 750 
Q 3113 1113 3238 1747 
z
" transform="scale(0.015625)"/>
       <path id="DejaVuSans-28" d="M 1984 4856 
Q 1566 4138 1362 3434 
Q 1159 2731 1159 2009 
Q 1159 1288 1364 580 
Q 1569 -128 1984 -844 
L 1484 -844 
Q 1016 -109 783 600 
Q 550 1309 550 2009 
Q 550 2706 781 3412 
Q 1013 4119 1484 4856 
L 1984 4856 
z
" transform="scale(0.015625)"/>
       <path id="DejaVuSans-29" d="M 513 4856 
L 1013 4856 
Q 1481 4119 1714 3412 
Q 1947 2706 1947 2009 
Q 1947 1309 1714 600 
Q 1481 -109 1013 -844 
L 513 -844 
Q 928 -128 1133 580 
Q 1338 1288 1338 2009 
Q 1338 2731 1133 3434 
Q 928 4138 513 4856 
z
" transform="scale(0.015625)"/>
       <path id="DejaVuSans-Oblique-75" d="M 428 1388 
L 838 3500 
L 1416 3500 
L 1006 1409 
Q 975 1256 961 1147 
Q 947 1038 947 966 
Q 947 700 1109 554 
Q 1272 409 1569 409 
Q 2031 409 2368 721 
Q 2706 1034 2809 1563 
L 3194 3500 
L 3769 3500 
L 3091 0 
L 2516 0 
L 2631 550 
Q 2388 244 2052 76 
Q 1716 -91 1338 -91 
Q 878 -91 622 161 
Q 366 413 366 863 
Q 366 956 381 1097 
Q 397 1238 428 1388 
z
" transform="scale(0.015625)"/>
       <path id="DejaVuSans-Oblique-70" d="M 3175 2156 
Q 3175 2616 2975 2859 
Q 2775 3103 2400 3103 
Q 2144 3103 1911 2972 
Q 1678 2841 1497 2591 
Q 1319 2344 1212 1994 
Q 1106 1644 1106 1300 
Q 1106 863 1306 627 
Q 1506 391 1875 391 
Q 2147 391 2380 519 
Q 2613 647 2778 891 
Q 2956 1147 3065 1494 
Q 3175 1841 3175 2156 
z
M 1394 2969 
Q 1625 3272 1939 3428 
Q 2253 3584 2638 3584 
Q 3175 3584 3472 3232 
Q 3769 2881 3769 2247 
Q 3769 1728 3584 1258 
Q 3400 788 3053 416 
Q 2822 169 2531 39 
Q 2241 -91 1919 -91 
Q 1547 -91 1294 64 
Q 1041 219 916 525 
L 556 -1331 
L -19 -1331 
L 922 3500 
L 1497 3500 
L 1394 2969 
z
" transform="scale(0.015625)"/>
       <path id="DejaVuSans-20" transform="scale(0.015625)"/>
       <path id="DejaVuSans-65" d="M 3597 1894 
L 3597 1613 
L 953 1613 
Q 991 1019 1311 708 
Q 1631 397 2203 397 
Q 2534 397 2845 478 
Q 3156 559 3463 722 
L 3463 178 
Q 3153 47 2828 -22 
Q 2503 -91 2169 -91 
Q 1331 -91 842 396 
Q 353 884 353 1716 
Q 353 2575 817 3079 
Q 1281 3584 2069 3584 
Q 2775 3584 3186 3129 
Q 3597 2675 3597 1894 
z
M 3022 2063 
Q 3016 2534 2758 2815 
Q 2500 3097 2075 3097 
Q 1594 3097 1305 2825 
Q 1016 2553 972 2059 
L 3022 2063 
z
" transform="scale(0.015625)"/>
       <path id="DejaVuSans-69" d="M 603 3500 
L 1178 3500 
L 1178 0 
L 603 0 
L 603 3500 
z
M 603 4863 
L 1178 4863 
L 1178 4134 
L 603 4134 
L 603 4863 
z
" transform="scale(0.015625)"/>
       <path id="DejaVuSans-67" d="M 2906 1791 
Q 2906 2416 2648 2759 
Q 2391 3103 1925 3103 
Q 1463 3103 1205 2759 
Q 947 2416 947 1791 
Q 947 1169 1205 825 
Q 1463 481 1925 481 
Q 2391 481 2648 825 
Q 2906 1169 2906 1791 
z
M 3481 434 
Q 3481 -459 3084 -895 
Q 2688 -1331 1869 -1331 
Q 1566 -1331 1297 -1286 
Q 1028 -1241 775 -1147 
L 775 -588 
Q 1028 -725 1275 -790 
Q 1522 -856 1778 -856 
Q 2344 -856 2625 -561 
Q 2906 -266 2906 331 
L 2906 616 
Q 2728 306 2450 153 
Q 2172 0 1784 0 
Q 1141 0 747 490 
Q 353 981 353 1791 
Q 353 2603 747 3093 
Q 1141 3584 1784 3584 
Q 2172 3584 2450 3431 
Q 2728 3278 2906 2969 
L 2906 3500 
L 3481 3500 
L 3481 434 
z
" transform="scale(0.015625)"/>
      </defs>
      <use xlink:href="#DejaVuSans-Oblique-3c1" transform="translate(0 0.60625)"/>
      <use xlink:href="#DejaVuSans-28" transform="translate(68.126458 38.8875) scale(0.7)"/>
      <use xlink:href="#DejaVuSans-32" transform="translate(95.436029 38.8875) scale(0.7)"/>
      <use xlink:href="#DejaVuSans-29" transform="translate(139.972161 38.8875) scale(0.7)"/>
      <use xlink:href="#DejaVuSans-Oblique-75" transform="translate(63.476562 -26.7375) scale(0.7)"/>
      <use xlink:href="#DejaVuSans-Oblique-70" transform="translate(107.841797 -26.7375) scale(0.7)"/>
      <use xlink:href="#DejaVuSans-Oblique-75" transform="translate(152.275391 -26.7375) scale(0.7)"/>
      <use xlink:href="#DejaVuSans-Oblique-70" transform="translate(196.640625 -26.7375) scale(0.7)"/>
      <use xlink:href="#DejaVuSans-20" transform="translate(243.808594 0.60625)"/>
      <use xlink:href="#DejaVuSans-65" transform="translate(275.595703 0.60625)"/>
      <use xlink:href="#DejaVuSans-69" transform="translate(337.119141 0.60625)"/>
      <use xlink:href="#DejaVuSans-67" transform="translate(364.902344 0.60625)"/>
     </g>
    </g>
   </g>
   <g id="line2d_13">
    <path d="M 71.775852 261.216 
L 154.18816 261.109872 
L 204.135013 260.633736 
L 216.621726 260.296892 
L 226.611097 259.817273 
L 234.103125 259.283537 
L 241.595153 258.565109 
L 249.087181 257.640557 
L 256.579209 256.507815 
L 266.56858 254.71858 
L 281.552635 251.710274 
L 294.039349 249.257516 
L 304.028719 247.513563 
L 314.01809 246.03255 
L 324.007461 244.825008 
L 333.996831 243.87023 
L 343.986202 243.132701 
L 356.472915 242.45667 
L 371.456971 241.91406 
L 388.93837 241.530392 
L 396.430398 241.421653 
L 396.430398 241.421653 
" clip-path="url(#p14ec5e2ba2)" style="fill: none; stroke: #1f77b4; stroke-width: 1.5; stroke-linecap: square"/>
   </g>
   <g id="line2d_14">
    <path d="M 71.775852 261.134571 
L 171.669559 260.885024 
L 184.156272 260.71422 
L 204.135013 260.432382 
L 216.621726 260.055789 
L 226.611097 259.552889 
L 236.600468 258.79088 
L 244.092496 258.007576 
L 251.584524 257.024008 
L 259.076552 255.845303 
L 269.065922 254.026821 
L 299.034034 248.258905 
L 309.023405 246.668753 
L 319.012775 245.345497 
L 329.002146 244.282766 
L 338.991517 243.45192 
L 351.47823 242.682482 
L 363.964943 242.144462 
L 378.948999 241.71732 
L 396.430398 241.418429 
L 396.430398 241.418429 
" clip-path="url(#p14ec5e2ba2)" style="fill: none; stroke: #ff7f0e; stroke-width: 1.5; stroke-linecap: square"/>
   </g>
   <g id="line2d_15">
    <path d="M 71.775852 261.125258 
L 181.658929 260.596957 
L 191.6483 260.137605 
L 199.140328 259.623212 
L 206.632356 258.923752 
L 214.124384 258.004832 
L 221.616412 256.841013 
L 229.10844 255.424809 
L 236.600468 253.775929 
L 246.589838 251.312319 
L 264.071237 246.912777 
L 271.563265 245.272532 
L 279.055293 243.896163 
L 286.547321 242.813358 
L 294.039349 242.014903 
L 301.531377 241.464014 
L 309.023405 241.11064 
L 319.012775 240.858972 
L 333.996831 240.754351 
L 363.964943 240.858513 
L 396.430398 240.976111 
L 396.430398 240.976111 
" clip-path="url(#p14ec5e2ba2)" style="fill: none; stroke: #2ca02c; stroke-width: 1.5; stroke-linecap: square"/>
   </g>
   <g id="line2d_16">
    <path d="M 71.775852 261.099809 
L 111.733335 260.684999 
L 126.717391 260.272187 
L 139.204104 259.693311 
L 149.193475 259.002113 
L 156.685503 258.309179 
L 164.177531 257.435606 
L 171.669559 256.355347 
L 179.161587 255.047375 
L 186.653615 253.499495 
L 194.145642 251.712903 
L 201.63767 249.707507 
L 211.627041 246.773584 
L 229.10844 241.49927 
L 236.600468 239.492125 
L 241.595153 238.33191 
L 246.589838 237.349422 
L 251.584524 236.565031 
L 256.579209 235.987945 
L 261.573894 235.615541 
L 266.56858 235.434188 
L 271.563265 235.421393 
L 279.055293 235.655458 
L 289.044663 236.279411 
L 326.504803 239.012038 
L 341.488859 239.728853 
L 356.472915 240.218837 
L 376.451656 240.618134 
L 396.430398 240.834062 
L 396.430398 240.834062 
" clip-path="url(#p14ec5e2ba2)" style="fill: none; stroke: #d62728; stroke-width: 1.5; stroke-linecap: square"/>
   </g>
   <g id="line2d_17">
    <path d="M 71.775852 261.092222 
L 89.257251 260.874356 
L 106.738649 260.459711 
L 119.225363 259.956925 
L 129.214733 259.347915 
L 139.204104 258.497398 
L 146.696132 257.703173 
L 154.18816 256.69912 
L 161.680188 255.445128 
L 169.172216 253.898803 
L 174.166901 252.683736 
L 179.161587 251.305654 
L 184.156272 249.750954 
L 189.150957 248.006103 
L 194.145642 246.058006 
L 199.140328 243.894536 
L 204.135013 241.505282 
L 209.129698 238.882463 
L 214.124384 236.022001 
L 219.119069 232.924654 
L 224.113754 229.597102 
L 229.10844 226.052849 
L 236.600468 220.377984 
L 244.092496 214.366519 
L 261.573894 199.940563 
L 264.071237 198.430961 
L 269.065922 195.955281 
L 274.060608 193.748967 
L 279.055293 191.792167 
L 284.049978 190.077126 
L 289.044663 188.590595 
L 294.039349 187.314505 
L 299.034034 186.227843 
L 304.028719 185.308421 
L 311.520747 184.195256 
L 319.012775 183.341476 
L 326.504803 182.68924 
L 336.494174 182.053645 
L 348.980887 181.522216 
L 363.964943 181.130586 
L 383.943684 180.846957 
L 396.430398 180.748279 
L 396.430398 180.748279 
" clip-path="url(#p14ec5e2ba2)" style="fill: none; stroke: #9467bd; stroke-width: 1.5; stroke-linecap: square"/>
   </g>
   <g id="line2d_18">
    <path d="M 71.775852 261.044426 
L 94.251936 260.677878 
L 111.733335 260.173912 
L 124.220048 259.601566 
L 134.209419 258.928829 
L 141.701447 258.195653 
L 149.193475 257.21899 
L 161.680188 255.203364 
L 169.172216 253.664103 
L 174.166901 252.456771 
L 179.161587 251.088411 
L 184.156272 249.545003 
L 189.150957 247.812591 
L 194.145642 245.877677 
L 199.140328 243.727765 
L 204.135013 241.352113 
L 209.129698 238.742662 
L 214.124384 235.895097 
L 219.119069 232.80999 
L 224.113754 229.493869 
L 229.10844 225.960121 
L 236.600468 220.299053 
L 244.092496 214.298584 
L 259.076552 201.840505 
L 266.56858 195.711167 
L 274.060608 189.839387 
L 281.552635 184.33223 
L 286.547321 180.906613 
L 291.542006 177.692964 
L 296.536691 174.69584 
L 301.531377 171.913699 
L 306.526062 169.340921 
L 309.023405 168.410094 
L 314.01809 170.249354 
L 319.012775 171.826875 
L 324.007461 173.171211 
L 329.002146 174.3145 
L 333.996831 175.285357 
L 341.488859 176.472325 
L 348.980887 177.398021 
L 356.472915 178.118973 
L 366.462286 178.837429 
L 378.948999 179.453474 
L 393.933055 179.917662 
L 396.430398 179.974289 
L 396.430398 179.974289 
" clip-path="url(#p14ec5e2ba2)" style="fill: none; stroke: #8c564b; stroke-width: 1.5; stroke-linecap: square"/>
   </g>
   <g id="line2d_19">
    <path d="M 71.775852 261.03393 
L 94.251936 260.673142 
L 109.235992 260.246161 
L 121.722705 259.673699 
L 131.712076 258.990566 
L 139.204104 258.293217 
L 149.193475 257.154361 
L 154.18816 256.419014 
L 161.680188 255.160174 
L 169.172216 253.615364 
L 174.166901 252.404525 
L 179.161587 251.032919 
L 184.156272 249.486616 
L 189.150957 247.751748 
L 194.145642 245.814891 
L 199.140328 243.663614 
L 204.135013 241.287223 
L 209.129698 238.677689 
L 214.124384 235.830706 
L 219.119069 232.746836 
L 224.113754 229.432573 
L 229.10844 225.901252 
L 236.600468 220.244726 
L 244.092496 214.249606 
L 259.076552 201.80327 
L 266.56858 195.700801 
L 274.060608 189.820823 
L 281.552635 184.315392 
L 286.547321 180.891546 
L 291.542006 177.679659 
L 296.536691 174.68415 
L 301.531377 171.90338 
L 306.526062 169.331149 
L 311.520747 166.964567 
L 316.515433 164.778642 
L 321.510118 162.767594 
L 329.002146 160.051606 
L 336.494174 157.659201 
L 343.986202 155.551471 
L 351.47823 153.693618 
L 358.970258 152.055094 
L 366.462286 150.609326 
L 376.451656 148.942034 
L 386.441027 147.530339 
L 396.430398 146.335525 
L 396.430398 146.335525 
" clip-path="url(#p14ec5e2ba2)" style="fill: none; stroke: #e377c2; stroke-width: 1.5; stroke-linecap: square"/>
   </g>
   <g id="line2d_20">
    <path d="M 71.775852 260.968094 
L 94.251936 260.653931 
L 109.235992 260.244949 
L 121.722705 259.668629 
L 131.712076 258.983488 
L 139.204104 258.286342 
L 149.193475 257.120478 
L 154.18816 256.418575 
L 161.680188 254.955181 
L 166.674873 253.781702 
L 171.669559 252.432264 
L 176.664244 250.892533 
L 181.658929 249.149146 
L 186.653615 247.189914 
L 191.6483 245.004052 
L 196.642985 242.582528 
L 201.63767 239.918545 
L 206.632356 237.00824 
L 211.627041 233.851565 
L 216.621726 230.453312 
L 221.616412 226.824167 
L 226.611097 222.981641 
L 236.600468 215.08975 
L 246.589838 208.546497 
L 254.081866 203.913924 
L 261.573894 199.561731 
L 264.071237 197.691716 
L 271.563265 191.71612 
L 279.055293 186.080431 
L 284.049978 182.557418 
L 289.044663 179.241217 
L 294.039349 176.13973 
L 299.034034 173.254196 
L 304.028719 170.580534 
L 309.023405 168.12038 
L 314.01809 165.842597 
L 319.012775 163.74632 
L 324.007461 161.818811 
L 331.499489 159.21624 
L 338.991517 156.923659 
L 346.483545 154.903533 
L 353.975573 153.122523 
L 361.467601 151.551428 
L 368.959628 150.164952 
L 378.948999 148.56592 
L 388.93837 147.212049 
L 396.430398 146.335049 
L 396.430398 146.335049 
" clip-path="url(#p14ec5e2ba2)" style="fill: none; stroke: #7f7f7f; stroke-width: 1.5; stroke-linecap: square"/>
   </g>
   <g id="line2d_21">
    <path d="M 71.775852 260.88984 
L 94.251936 260.543439 
L 109.235992 260.116811 
L 121.722705 259.556803 
L 131.712076 258.911569 
L 139.204104 258.272814 
L 146.696132 257.389979 
L 154.18816 256.233668 
L 161.680188 254.777053 
L 166.674873 253.611489 
L 171.669559 252.272188 
L 176.664244 250.744433 
L 181.658929 249.01443 
L 186.653615 247.069533 
L 191.6483 244.898508 
L 196.642985 242.491892 
L 201.63767 239.842507 
L 206.632356 236.946158 
L 211.627041 233.802527 
L 216.621726 230.416195 
L 221.616412 226.797697 
L 226.611097 222.964454 
L 234.103125 216.868781 
L 241.595153 210.464897 
L 264.071237 191.01264 
L 271.563265 185.016704 
L 276.55795 181.27619 
L 281.552635 177.769769 
L 286.547321 174.510754 
L 291.542006 171.503297 
L 296.536691 168.74386 
L 301.531377 166.223012 
L 304.028719 166.248075 
L 306.526062 167.365124 
L 309.023405 168.110768 
L 314.01809 165.834381 
L 319.012775 163.739302 
L 324.007461 161.812826 
L 331.499489 159.211539 
L 338.991517 156.919978 
L 346.483545 154.900658 
L 353.975573 153.120284 
L 361.467601 151.549691 
L 368.959628 150.163607 
L 378.948999 148.564969 
L 388.93837 147.21138 
L 396.430398 146.334537 
L 396.430398 146.334537 
" clip-path="url(#p14ec5e2ba2)" style="fill: none; stroke: #bcbd22; stroke-width: 1.5; stroke-linecap: square"/>
   </g>
   <g id="line2d_22">
    <path d="M 71.775852 260.886156 
L 94.251936 260.535793 
L 109.235992 260.104831 
L 121.722705 259.539677 
L 131.712076 258.88918 
L 141.701447 257.995708 
L 149.193475 257.031609 
L 156.685503 255.78026 
L 161.680188 254.767743 
L 166.674873 253.595677 
L 171.669559 252.249039 
L 176.664244 250.713425 
L 181.658929 248.975361 
L 186.653615 247.022524 
L 191.6483 244.843979 
L 196.642985 242.43054 
L 201.63767 239.775261 
L 206.632356 236.874133 
L 211.627041 233.726965 
L 216.621726 230.338412 
L 221.616412 226.719023 
L 226.611097 222.886177 
L 234.103125 216.793297 
L 239.09781 212.625028 
L 266.56858 188.955566 
L 271.563265 185.004398 
L 276.55795 181.264359 
L 281.552635 177.758656 
L 286.547321 174.500507 
L 291.542006 171.493985 
L 296.536691 168.735496 
L 301.531377 166.21557 
L 306.526062 163.927237 
L 311.520747 161.840597 
L 316.515433 159.946035 
L 321.510118 158.226409 
L 329.002146 155.938972 
L 336.494174 153.956756 
L 343.986202 152.234912 
L 351.47823 150.735321 
L 358.970258 149.425994 
L 368.959628 147.93072 
L 378.948999 146.675335 
L 388.93837 145.619169 
L 396.430398 144.937907 
L 396.430398 144.937907 
" clip-path="url(#p14ec5e2ba2)" style="fill: none; stroke: #17becf; stroke-width: 1.5; stroke-linecap: square"/>
   </g>
   <g id="line2d_23">
    <path d="M 71.775852 260.857566 
L 89.257251 260.497599 
L 104.241307 259.976163 
L 116.72802 259.304014 
L 126.717391 258.53206 
L 134.209419 257.766268 
L 141.701447 256.796289 
L 149.193475 255.577716 
L 156.685503 254.064739 
L 161.680188 252.870895 
L 166.674873 251.515423 
L 171.669559 249.988727 
L 176.664244 248.283371 
L 181.658929 246.394347 
L 186.653615 244.319246 
L 191.6483 242.058387 
L 196.642985 239.614993 
L 201.63767 236.995415 
L 209.129698 232.758224 
L 216.621726 228.197636 
L 224.113754 223.386703 
L 234.103125 216.755895 
L 239.09781 212.55266 
L 266.56858 188.921834 
L 271.563265 184.975543 
L 276.55795 181.239755 
L 281.552635 177.73773 
L 286.547321 174.48274 
L 291.542006 171.478918 
L 296.536691 168.722729 
L 301.531377 166.204755 
L 306.526062 163.920666 
L 311.520747 161.83483 
L 316.515433 159.941 
L 321.510118 158.222031 
L 329.002146 155.935445 
L 336.494174 153.953933 
L 343.986202 152.232664 
L 351.47823 150.733539 
L 358.970258 149.424587 
L 368.959628 147.929701 
L 378.948999 146.674601 
L 388.93837 145.618644 
L 396.430398 144.9375 
L 396.430398 144.9375 
" clip-path="url(#p14ec5e2ba2)" style="fill: none; stroke: #1f77b4; stroke-width: 1.5; stroke-linecap: square"/>
   </g>
   <g id="line2d_24">
    <path d="M 71.775852 19.637035 
L 86.759908 19.998554 
L 99.246622 20.475508 
L 109.235992 21.034215 
L 119.225363 21.83116 
L 126.717391 22.647355 
L 134.209419 23.712882 
L 139.204104 24.594787 
L 144.198789 25.639925 
L 149.193475 26.872538 
L 154.18816 28.317971 
L 159.182845 30.002081 
L 164.177531 31.950664 
L 169.172216 34.188696 
L 174.166901 36.739705 
L 179.161587 39.625192 
L 184.156272 42.864042 
L 189.150957 46.471924 
L 194.145642 50.46049 
L 199.140328 54.836506 
L 204.135013 59.600576 
L 209.129698 64.745863 
L 214.124384 70.256365 
L 219.119069 76.105604 
L 224.113754 82.255417 
L 231.605782 91.929607 
L 244.092496 108.672127 
L 251.584524 118.628898 
L 256.579209 125.043618 
L 261.573894 131.181443 
L 266.56858 136.969486 
L 271.563265 142.349822 
L 276.55795 147.282175 
L 281.552635 151.745041 
L 286.547321 155.734887 
L 291.542006 159.263735 
L 296.536691 162.355852 
L 301.531377 165.043948 
L 304.028719 165.030997 
L 309.023405 162.844244 
L 314.01809 160.857858 
L 319.012775 159.054667 
L 326.504803 156.65662 
L 333.996831 154.579775 
L 341.488859 152.777134 
L 348.980887 151.208443 
L 356.472915 149.839802 
L 366.462286 148.277918 
L 376.451656 146.967403 
L 386.441027 145.865256 
L 396.430398 144.937073 
L 396.430398 144.937073 
" clip-path="url(#p14ec5e2ba2)" style="fill: none; stroke: #ff7f0e; stroke-width: 1.5; stroke-linecap: square"/>
   </g>
   <g id="line2d_25">
    <path d="M 71.775852 19.629188 
L 91.754594 19.952346 
L 106.738649 20.372267 
L 119.225363 20.930146 
L 129.214733 21.5688 
L 139.204104 22.439577 
L 146.696132 23.286962 
L 154.18816 24.338662 
L 161.680188 25.632175 
L 166.674873 26.673705 
L 171.669559 28.004496 
L 176.664244 29.526791 
L 181.658929 31.25486 
L 186.653615 33.201717 
L 191.6483 35.378873 
L 196.642985 37.795863 
L 201.63767 40.45978 
L 206.632356 43.37455 
L 211.627041 46.539896 
L 216.621726 49.950525 
L 221.616412 53.594903 
L 226.611097 57.454613 
L 234.103125 63.588601 
L 241.595153 70.026206 
L 261.573894 87.447543 
L 269.065922 93.582617 
L 274.060608 97.433032 
L 279.055293 101.057927 
L 284.049978 104.43958 
L 289.044663 107.569893 
L 294.039349 110.449134 
L 299.034034 113.084346 
L 304.028719 115.487404 
L 309.023405 117.673356 
L 314.01809 119.65892 
L 319.012775 121.461333 
L 326.504803 123.858347 
L 333.996831 125.934378 
L 341.488859 127.736385 
L 348.980887 129.304587 
L 356.472915 130.672857 
L 366.462286 132.234404 
L 376.451656 133.544671 
L 386.441027 134.646687 
L 396.430398 135.574746 
L 396.430398 135.574746 
" clip-path="url(#p14ec5e2ba2)" style="fill: none; stroke: #2ca02c; stroke-width: 1.5; stroke-linecap: square"/>
   </g>
   <g id="line2d_26">
    <path d="M 71.775852 19.617048 
L 96.749279 20.065496 
L 111.733335 20.564289 
L 124.220048 21.206269 
L 134.209419 21.939701 
L 144.198789 22.938589 
L 151.690817 23.908551 
L 159.182845 25.10857 
L 164.177531 26.075421 
L 169.172216 27.247629 
L 174.166901 28.669355 
L 179.161587 30.290613 
L 184.156272 32.125092 
L 189.150957 34.185115 
L 194.145642 36.481238 
L 199.140328 39.021845 
L 204.135013 41.812446 
L 209.129698 44.854977 
L 214.124384 48.146653 
L 219.119069 51.679111 
L 224.113754 55.437428 
L 231.605782 61.447361 
L 239.09781 67.805518 
L 264.071237 89.504613 
L 271.563265 95.509883 
L 276.55795 99.253518 
L 281.552635 102.761211 
L 286.547321 106.020183 
L 291.542006 109.02671 
L 296.536691 111.784697 
L 301.531377 114.303826 
L 306.526062 116.597806 
L 311.520747 118.682701 
L 316.515433 120.575642 
L 321.510118 122.293824 
L 329.002146 124.579371 
L 336.494174 126.560091 
L 343.986202 128.280735 
L 351.47823 129.779387 
L 358.970258 131.087992 
L 368.959628 132.582573 
L 378.948999 133.837448 
L 388.93837 134.893269 
L 396.430398 135.57432 
L 396.430398 135.57432 
" clip-path="url(#p14ec5e2ba2)" style="fill: none; stroke: #d62728; stroke-width: 1.5; stroke-linecap: square"/>
   </g>
   <g id="line2d_27">
    <path d="M 71.775852 19.547711 
L 94.251936 19.895572 
L 109.235992 20.323355 
L 121.722705 20.890918 
L 131.712076 21.549895 
L 141.701447 22.459312 
L 149.193475 23.35148 
L 154.18816 24.0835 
L 161.680188 25.519285 
L 169.172216 27.207486 
L 174.166901 28.447497 
L 179.161587 30.071815 
L 184.156272 31.910932 
L 189.150957 33.977083 
L 194.145642 36.28071 
L 199.140328 38.830067 
L 204.135013 41.630511 
L 209.129698 44.683811 
L 214.124384 47.986999 
L 219.119069 51.531512 
L 224.113754 55.30221 
L 231.605782 61.330841 
L 239.09781 67.707188 
L 264.071237 89.455882 
L 271.563265 95.47165 
L 276.55795 99.221173 
L 281.552635 102.733937 
L 286.547321 105.997243 
L 291.542006 109.00745 
L 296.536691 111.768546 
L 301.531377 114.290293 
L 306.526062 116.58647 
L 311.520747 118.673208 
L 316.515433 120.567691 
L 321.510118 122.287165 
L 329.002146 124.574265 
L 336.494174 126.556177 
L 343.986202 128.277734 
L 351.47823 129.777087 
L 358.970258 131.08623 
L 368.959628 132.581341 
L 378.948999 133.836589 
L 388.93837 134.892672 
L 396.430398 135.573867 
L 396.430398 135.573867 
" clip-path="url(#p14ec5e2ba2)" style="fill: none; stroke: #9467bd; stroke-width: 1.5; stroke-linecap: square"/>
   </g>
   <g id="line2d_28">
    <path d="M 71.775852 19.48581 
L 91.754594 19.755182 
L 109.235992 20.206732 
L 121.722705 20.751095 
L 131.712076 21.405698 
L 139.204104 22.078216 
L 146.696132 22.954281 
L 154.18816 24.066312 
L 159.182845 24.942776 
L 166.674873 26.578301 
L 171.669559 27.728552 
L 184.156272 31.373969 
L 189.150957 33.111868 
L 194.145642 35.046125 
L 199.140328 37.189 
L 204.135013 39.55125 
L 209.129698 42.14134 
L 214.124384 44.964198 
L 219.119069 48.02022 
L 224.113754 51.304103 
L 229.10844 54.803775 
L 236.600468 60.413239 
L 244.092496 66.365314 
L 256.579209 76.678258 
L 266.56858 84.861785 
L 274.060608 90.723868 
L 281.552635 96.217422 
L 286.547321 99.635884 
L 291.542006 102.843865 
L 296.536691 105.836579 
L 301.531377 108.615346 
L 306.526062 111.186134 
L 311.520747 113.55821 
L 316.515433 115.742889 
L 321.510118 117.752583 
L 329.002146 120.466818 
L 336.494174 122.857852 
L 343.986202 124.964463 
L 351.47823 126.821414 
L 358.970258 128.459216 
L 366.462286 129.904427 
L 376.451656 131.571106 
L 386.441027 132.982388 
L 396.430398 134.176863 
L 396.430398 134.176863 
" clip-path="url(#p14ec5e2ba2)" style="fill: none; stroke: #8c564b; stroke-width: 1.5; stroke-linecap: square"/>
   </g>
   <g id="line2d_29">
    <path d="M 71.775852 19.467686 
L 91.754594 19.751947 
L 109.235992 20.199135 
L 121.722705 20.732603 
L 131.712076 21.37595 
L 139.204104 22.039522 
L 146.696132 22.906819 
L 154.18816 24.027905 
L 164.177531 25.836103 
L 169.172216 27.024348 
L 181.658929 30.495955 
L 186.653615 32.139523 
L 191.6483 33.973929 
L 196.642985 36.011796 
L 201.63767 38.264672 
L 206.632356 40.742238 
L 211.627041 43.451183 
L 216.621726 46.394284 
L 221.616412 49.569034 
L 226.611097 52.966812 
L 231.605782 56.571762 
L 239.09781 62.314595 
L 246.589838 68.359553 
L 269.065922 86.823743 
L 276.55795 92.578725 
L 281.552635 96.198289 
L 286.547321 99.619244 
L 291.542006 102.829445 
L 296.536691 105.82412 
L 301.531377 108.60461 
L 306.526062 111.176902 
L 311.520747 113.550287 
L 316.515433 115.736099 
L 321.510118 117.746772 
L 329.002146 120.462229 
L 336.494174 122.854237 
L 343.986202 124.961622 
L 351.47823 126.819186 
L 358.970258 128.457474 
L 366.462286 129.903068 
L 376.451656 131.570135 
L 386.441027 132.981697 
L 396.430398 134.176373 
L 396.430398 134.176373 
" clip-path="url(#p14ec5e2ba2)" style="fill: none; stroke: #e377c2; stroke-width: 1.5; stroke-linecap: square"/>
   </g>
   <g id="line2d_30">
    <path d="M 71.775852 19.452756 
L 91.754594 19.642689 
L 109.235992 20.057587 
L 121.722705 20.565941 
L 131.712076 21.189913 
L 139.204104 21.840538 
L 146.696132 22.697068 
L 154.18816 23.810213 
L 161.680188 25.234281 
L 171.669559 27.509147 
L 176.664244 28.812868 
L 181.658929 30.282518 
L 186.653615 31.93128 
L 191.6483 33.772228 
L 196.642985 35.817866 
L 201.63767 38.079608 
L 206.632356 40.566991 
L 211.627041 43.286542 
L 216.621726 46.240867 
L 221.616412 49.427272 
L 226.611097 52.836942 
L 231.605782 56.453818 
L 239.09781 62.214173 
L 246.589838 68.27567 
L 269.065922 86.779477 
L 276.55795 92.543844 
L 281.552635 96.168669 
L 286.547321 99.594162 
L 291.542006 102.808252 
L 296.536691 105.806242 
L 301.531377 108.589544 
L 306.526062 111.164217 
L 311.520747 113.539611 
L 316.515433 115.727118 
L 321.510118 117.739217 
L 329.002146 120.456404 
L 336.494174 122.849747 
L 343.986202 124.958164 
L 351.47823 126.816526 
L 358.970258 128.455429 
L 366.462286 129.901499 
L 376.451656 131.569036 
L 386.441027 132.980931 
L 396.430398 134.175842 
L 396.430398 134.175842 
" clip-path="url(#p14ec5e2ba2)" style="fill: none; stroke: #7f7f7f; stroke-width: 1.5; stroke-linecap: square"/>
   </g>
   <g id="line2d_31">
    <path d="M 71.775852 19.398407 
L 141.701447 19.745953 
L 181.658929 19.814564 
L 224.113754 19.650893 
L 296.536691 19.35097 
L 391.435712 19.297639 
L 396.430398 19.297247 
L 396.430398 19.297247 
" clip-path="url(#p14ec5e2ba2)" style="fill: none; stroke: #bcbd22; stroke-width: 1.5; stroke-linecap: square"/>
   </g>
   <g id="line2d_32">
    <path d="M 71.775852 19.383486 
L 194.145642 19.581545 
L 396.430398 19.296606 
L 396.430398 19.296606 
" clip-path="url(#p14ec5e2ba2)" style="fill: none; stroke: #17becf; stroke-width: 1.5; stroke-linecap: square"/>
   </g>
   <g id="line2d_33">
    <path d="M 71.775852 19.365342 
L 171.669559 19.520902 
L 244.092496 19.391754 
L 333.996831 19.301103 
L 396.430398 19.296 
L 396.430398 19.296 
" clip-path="url(#p14ec5e2ba2)" style="fill: none; stroke: #1f77b4; stroke-width: 1.5; stroke-linecap: square"/>
   </g>
   <g id="patch_3">
    <path d="M 55.543125 273.312 
L 55.543125 7.2 
" style="fill: none; stroke: #000000; stroke-width: 0.8; stroke-linejoin: miter; stroke-linecap: square"/>
   </g>
   <g id="patch_4">
    <path d="M 412.663125 273.312 
L 412.663125 7.2 
" style="fill: none; stroke: #000000; stroke-width: 0.8; stroke-linejoin: miter; stroke-linecap: square"/>
   </g>
   <g id="patch_5">
    <path d="M 55.543125 273.312 
L 412.663125 273.312 
" style="fill: none; stroke: #000000; stroke-width: 0.8; stroke-linejoin: miter; stroke-linecap: square"/>
   </g>
   <g id="patch_6">
    <path d="M 55.543125 7.2 
L 412.663125 7.2 
" style="fill: none; stroke: #000000; stroke-width: 0.8; stroke-linejoin: miter; stroke-linecap: square"/>
   </g>
  </g>
 </g>
 <defs>
  <clipPath id="p14ec5e2ba2">
   <rect x="55.543125" y="7.2" width="357.12" height="266.112"/>
  </clipPath>
 </defs>
</svg>
